<svg id="Layer_1" data-name="Layer 1" xmlns="http://www.w3.org/2000/svg" viewBox="0 0 581.87 480.18"><defs><style>.cls-1,.cls-2{fill:#fff;}.cls-2{font-size:26px;font-family:Poppins-SemiBold, Poppins;font-weight:600;}</style></defs><title>Logo-white</title><path class="cls-1" d="M190.39,418.92c-4.21,1-7.67,3.5-12.13,3.67a4.12,4.12,0,0,1-3.13-1.09c1.64,2.32,3.35,4.59,5.18,6.75a3.4,3.4,0,0,1,.3-.23c3.93-2.39,7.3-5.43,11-8Z" transform="translate(-9.07 -78.54)"/><path class="cls-1" d="M434.43,329a25.57,25.57,0,0,1-4.38,4.85,18.33,18.33,0,0,0-2,1.37c.91,2.27.63,4.9-1.74,6.24a4.23,4.23,0,0,1-1.44.49c-.06,3-.15,6-.3,8.93-.79,15.36-3,30.42-8.7,44.8C408.76,413.74,397.05,428,381.42,439c-14.19,10-30,16.55-46.36,21.58-11.23,3.43-22.56,6.52-33.82,9.86-2.54.76-4.95,2-7.47,2.87a3,3,0,0,1-2.35,0c-13.09-8.74-27.81-13.63-42.41-18.79-11.77-4.16-23.49-8.45-34.45-14.58-1.73,1.35-3.51,2.64-5.24,4-2,1.56-5.25.29-6.4-1.68-1.4-2.38-.32-4.86,1.68-6.41l2.51-1.91-1.89-1.7a49,49,0,0,0-15,6.08,102.94,102.94,0,0,0,25.28,16.21c11.65,5.33,23.77,9.61,35.76,14.11,10.89,4.08,21.92,7.81,31.75,14.26,3.56,2.34,6.83,5.15,10.25,7.76a6.42,6.42,0,0,1,3.74-4.81,37.8,37.8,0,0,1,6.57-2.94c11.05-3.32,22.18-6.39,33.23-9.72,15.18-4.58,29.9-10.32,43.6-18.58,19.05-11.48,34.11-26.8,43.9-47.24,8.14-17,11.39-35.13,12.47-53.81.53-9,.59-18,.42-27A11.57,11.57,0,0,0,434.43,329Z" transform="translate(-9.07 -78.54)"/><path class="cls-1" d="M349.14,136.87c-.24,1.26-.43,2.51-.59,3.75,4-.94,8.56-2.09,12.74-1.92a58.49,58.49,0,0,1,2-7c1-2.86,1-2.84-1.51-4.56q-33.22-22.52-66.43-45a2.7,2.7,0,0,0-3.68,0c-8.87,6.4-17.79,12.71-26.71,19Q245.36,115.08,225.73,129c-.95.67-1,1.23-.66,2.33a71.45,71.45,0,0,1,2.56,8.57c4,18.65-7.13,34.22-25.74,36-10.33,1-19.63-2.07-28.14-7.88a2.38,2.38,0,0,0-3.18,0c-7.61,5.14-15.29,10.18-22.94,15.25l-12.25,8.17A25.8,25.8,0,0,1,147,203.74c4.13,8.5,5.6,17.68,6.48,27,1.53,16.31,1,32.63-.28,48.91-1.67,21.71-3,43.41-1.4,65.19a202,202,0,0,0,7.72,44.08,113.27,113.27,0,0,0,14.74,31.32c-1.25-2.73.09-6.83,4-7a14.08,14.08,0,0,0,5.23-1.6,101.62,101.62,0,0,1-11.37-24.06c-4.65-14.15-6.87-28.74-8-43.57-1.63-21.52-.11-42.94,1.39-64.38,1.26-18,1.87-36-.24-54-1.3-11.14-3.69-22-9.58-31.7a4.53,4.53,0,0,1-.27-.81c5.44-3.62,10.76-7.22,16.18-10.67.56-.36,1.78,0,2.53.36,8.45,4.14,17.3,6.43,26.69,5.81,14.17-.94,25.85-6.75,33.75-19.18,5.45-8.57,6.95-18.11,5.78-28.16a24.44,24.44,0,0,0-.81-4.61c-.52-1.61.22-2.32,1.36-3.12q17.66-12.5,35.27-25.05c5.31-3.77,10.62-7.52,15.88-11.35a2.34,2.34,0,0,1,3.18,0q26,17.72,52.13,35.28C349.18,133.62,349.53,134.75,349.14,136.87Z" transform="translate(-9.07 -78.54)"/><path class="cls-1" d="M475.07,511.21c-20.66,15.05-41.44,29.59-69.19,27.63-10.84-.76-20.36-5.07-29.14-11-9.33-6.25-18.38-12.88-27.74-19.07-13-8.57-26.21-11.44-37.54-8.82l70.38,47.58-9.25,11.15c-12.07-10.68-23.24-21.93-35.87-31.34-11.05-8.22-23.57-14.65-35.82-21.21-2.61-1.39-7.38-.93-10.28.43-20,9.38-36.07,23.83-51.79,38.68-3.62,3.42-7.06,7-11,11-3.14-3.73-5.94-7-9.6-11.37l60.8-42.46.08-.79c-5.79,1.5-12.1,2.06-17.27,4.71-9.1,4.66-17.53,10.57-26.19,16-7.2,4.55-14,9.72-21.54,13.69-13.7,7.25-28.32,8-43.19,3.66-17.28-5-32.08-14.36-47.52-26,5.34.55,9.07.88,12.79,1.32,32.34,3.83,62.93-1.63,92.23-15.43a152.8,152.8,0,0,1,28-9.71c12.08-3,24-.56,35.7,3.23,2.35.76,5.6,1.07,7.68.09,23.07-10.87,45.5-9,68.26,1.39a262.28,262.28,0,0,0,39.36,14.35C429.62,515,452.33,513.82,475.07,511.21Z" transform="translate(-9.07 -78.54)"/><path class="cls-1" d="M119.55,454.65c-11.48-14.42-12.57-31.48-14.81-48.34-1.68-12.71-4.36-25.3-6.66-38.26,11.61,15.2,23.08,30.59,28.11,49,6.17,22.55,15.91,43,31.24,61a31.76,31.76,0,0,1,1.83,3c-4.2-1-7.44-1.75-10.67-2.56-25.34-6.29-50.8-12.16-74.56-23.26C56.49,447,44.51,434.44,39.86,415.74c-2-8.06-4.46-16-6-24.27,4.91,6.48,9.67,13.06,14.76,19.4a63,63,0,0,0,24.44,19C89.18,436.86,105.81,443,119.55,454.65Z" transform="translate(-9.07 -78.54)"/><path class="cls-1" d="M501.39,365.49c-2.88,18.44-5.28,37.59-9.08,56.48-2,9.95-6.48,19.42-9.15,27.11,7.12-4,16.44-9.28,25.78-14.53a11,11,0,0,1,2.13-.95c24-7.38,41.11-22.68,53.37-43.58a12.08,12.08,0,0,1,1.79-1.67c-5.36,27.2-12.35,52.06-41.5,64.44-26.49,11.25-54.29,17.81-82.11,24.59-.3.07-.69-.2-1.48-.45,4.61-6.23,9.35-12.21,13.62-18.5a118.49,118.49,0,0,0,16.57-37.38C476.8,399.87,488.79,382,501.39,365.49Z" transform="translate(-9.07 -78.54)"/><path class="cls-1" d="M74.77,397.68c-10.3-29.72-2.51-58.78,2.29-87.92l2-.42c2,7.51,4.79,14.92,5.85,22.55,2,14.26,3,28.64,4.32,43,1.8,19.13,5.37,37.88,12.11,56,.31.82.47,1.69,1,3.8-29.7-18.75-59.24-35.68-77.79-65-10.33-16.35-13.6-34.41-12.34-53.76.85,1.51,1.78,3,2.54,4.55,9.41,19.25,21.8,36.05,39.08,49.71,7,5.57,11.66,14.05,17.24,21.3A51.76,51.76,0,0,1,74.77,397.68Z" transform="translate(-9.07 -78.54)"/><path class="cls-1" d="M522.11,305.5c7.07,34.37,12.21,59,2.15,89.85,4-6.16,6.94-11.5,10.63-16.33,3.47-4.54,7.14-9.21,11.67-12.66,16.72-12.71,28.62-28.86,37.55-47.3,1-2,2.2-4,3.3-6l1.92.27c-1.19,9.35-1.79,18.81-3.71,28-3.4,16.38-12.14,30.21-23.54,42.56C549.76,397.29,516,422,498.31,430.49a10.94,10.94,0,0,1,.23-2.76c9.26-24.49,11.6-50.11,14-75.83,1.23-13.5,4.37-26.84,6.81-40.22C519.66,309.75,521,308,522.11,305.5Z" transform="translate(-9.07 -78.54)"/><path class="cls-1" d="M552.08,320.82c8.5-23.18,17.21-46.17,25.28-69.37,2.81-8.08,4-16.69,6.47-25,5.44,15.54,8.27,31.33,6.64,47.74-1.46,14.75-6.31,28.44-13.72,41.32-10.06,17.47-23.35,32.51-38.22,48.06.41-7.14.85-13,1.06-18.92.46-13.24-2.31-26-6.75-38.4-7.84-22-11.07-44.79-11.7-68.09C536.1,264.11,554,289,552.08,320.82Z" transform="translate(-9.07 -78.54)"/><path class="cls-1" d="M47.71,322.45c-1.36-30.58,16-55.25,30.27-81l1.69.3c-1.14,10.19-1.6,20.5-3.6,30.52a386.42,386.42,0,0,1-10.15,40.17c-4.87,15.49-6.84,31-4.83,47.09.23,1.84.2,3.71.38,7.24-5.59-6-10.36-10.86-14.74-16-15.41-18-29.26-36.93-35-60.3-5.15-20.92-2.38-41.26,4.88-61.52,1.09,4.95,2.12,9.92,3.29,14.86s2.2,10,3.82,14.87c2.94,8.79,6.19,17.5,9.48,26.19C38,297.54,43,310.17,47.71,322.45Z" transform="translate(-9.07 -78.54)"/><path class="cls-1" d="M522.4,463.76c-8.68,8.71-17.06,17.73-26.1,26.07-15.85,14.61-35.41,18.33-56.47,16.73-25.47-1.95-49.89-8.5-75.31-16.21,9-3.61,16.92-6.91,25-10,10.18-3.92,18.16-10.44,26-17.82,14.27-13.4,29.69-25.64,44.7-38.43,1.07,1.32,1.5,1.69,1.43,1.8-7.73,13.79-15.23,27.71-23.37,41.27-5.63,9.38-14.48,15.57-25,19.7,21-.93,41.7-1.26,62.26-2.95,15.39-1.26,28.23-9.42,40.77-17.57,1.76-1.14,3.49-2.31,5.24-3.47Z" transform="translate(-9.07 -78.54)"/><path class="cls-1" d="M233.92,492.71c-25.57,8.76-50.91,15.8-77.5,17.09-20.36,1-38.9-3.61-53.86-17.81a233.19,233.19,0,0,1-23-25c3.33,2.07,6.71,4.08,10,6.22,16,10.5,33.63,15.44,53.06,15.29,15-.11,30,.92,44.39,1.42-16.69-5.14-25.84-18.6-33.56-33.55-4.8-9.3-10.09-18.37-15.43-28a7.15,7.15,0,0,1,2.18.66c16.23,13.63,32.77,26.94,48.49,41.09,8.46,7.62,18.46,11.89,28.65,16.19C222.79,488.55,228.39,490.56,233.92,492.71Z" transform="translate(-9.07 -78.54)"/><path class="cls-1" d="M553.46,243.53c1.6-20.32,3.9-42.19,4.81-64.11.41-10.18-1.89-20.47-2.83-29.52,7.36,4.62,17.58,24.2,19.17,36.62,1.79,14-.31,27.63-3.41,41.16-4.57,19.93-9.51,39.78-15.26,59.65-.71-2.72-1.43-5.43-2.12-8.15-3.74-14.66-11.32-27.34-21.18-38.85-10.26-12-20.42-24.08-24.5-39.62a112.69,112.69,0,0,1-3.46-20.3,16,16,0,0,1,1.69,2.3,61.18,61.18,0,0,0,18.88,22.1C546.6,220.62,546.53,220.7,553.46,243.53Z" transform="translate(-9.07 -78.54)"/><path class="cls-1" d="M43,290.31c-6.33-29.73-16.77-58.06-18.25-88.14-1-20,7-36.67,21.42-50.81-9,20.8-3,41.84-1.8,62.84.69,11.88.12,23.82,1.35,35.82,1-3.58,1.86-7.17,2.85-10.74,3.1-11.19,9.06-20.48,19.3-26.84,11.55-7.18,21.29-16,26.54-28.72l1.94.68c-2.28,8.68-3.39,17.88-7.13,25.91a124.94,124.94,0,0,1-17.07,26.91c-12.81,15.39-23.84,31.4-27.6,51.25C44.46,288.93,43.87,289.3,43,290.31Z" transform="translate(-9.07 -78.54)"/><path class="cls-1" d="M53.37,218.41c-2.16-22.44-4.5-44.55.2-66.51,4.24-19.81,18.49-31.56,37.35-41.28-3.74,5.65-6.75,10-9.54,14.47-7.15,11.49-11.82,23.74-13.22,37.27-.87,8.4-3.09,16.66-4.58,24.33,4.51-6.2,9-13.33,14.51-19.6A77.38,77.38,0,0,1,93,154.34c10.12-6.79,20.66-13,27.51-23.92,2.28,12.89-7.06,32.7-19.16,41.46a85.24,85.24,0,0,1-8.66,5.84C75.29,187.35,60.46,199.23,53.37,218.41Z" transform="translate(-9.07 -78.54)"/><path class="cls-1" d="M478.93,127.6c7.06,10.25,17.15,16.71,27.35,23.11,11.05,6.94,19.42,16.36,26,27.32,1.23,2,2.52,4,4.14,6.64-5.31-26.88-6.6-54.26-26.54-75.63,15.19,6.87,28.53,15.89,33.54,31.69,3.44,10.87,4.55,22.62,5.28,34.06.87,13.58.21,27.26.21,40.89l-2.33.33a37.78,37.78,0,0,1-1.88-3.48,65.58,65.58,0,0,0-26.93-31.37c-4.94-3-9.79-6.26-14.76-9.28C486.21,161.66,480.12,145.88,478.93,127.6Z" transform="translate(-9.07 -78.54)"/><path class="cls-1" d="M520.69,154.64c-13.29-9.61-25.06-18.82-34.16-30.94C475,108.29,463.06,93.14,451.81,78.54c15.47,6.8,32.76,13.11,46.3,25.79a32.8,32.8,0,0,1,8,11C511.2,127.93,515.6,140.76,520.69,154.64Z" transform="translate(-9.07 -78.54)"/><path class="cls-1" d="M149.74,81.91C145,87,139.8,91.8,135.47,97.23c-10,12.57-19,26-29.57,38-7.1,8.1-16.23,14.52-24.46,21.69l-1.57-1.12c.85-2.18,1.79-4.33,2.55-6.54,2.53-7.35,5.08-14.7,7.47-22.09,3.58-11,9.71-20.44,20.06-26.34,12.67-7.23,25.81-13.69,38.74-20.48Z" transform="translate(-9.07 -78.54)"/><path class="cls-1" d="M301.11,169.05a24.06,24.06,0,0,1,1.69-3.51c-1.67,1.76-3.34,3.52-5,5.31A21.63,21.63,0,0,1,301.11,169.05Z" transform="translate(-9.07 -78.54)"/><path class="cls-1" d="M479.64,240.14a18.74,18.74,0,0,1-.33-3c-.07-2.55,0-5.11-.14-7.66-.09-1.64-.57-3.26-.64-4.9a25.77,25.77,0,0,0-1.58-8.4,46.73,46.73,0,0,1-1.42-6.4,10.63,10.63,0,0,0-.83-2.27c-.93-1.87-2-3.68-2.87-5.56-.62-1.34-.95-2.82-1.6-4.15-1.68-3.45-3.45-6.85-5.31-10.5l.83-.85-.06-.05-1.06.91c-.22-.43-.35-.78-.55-1.09-1.38-2.15-2.68-4.36-4.17-6.44a54.21,54.21,0,0,0-4.62-5.74c-2.64-2.78-5.46-5.4-8.22-8.09-1.42-1.38-2.79-2.82-4.3-4.11s-2.92-2.29-4.43-3.36c-2.92-2.06-5.87-4.08-8.82-6.1-1.47-1-3-1.95-4.58-3,1.42-1.41,2.8-2.69,4.07-4.08s2.46-2.79,3.57-4.27,2.74-2.52,3.39-4.32c-1.58,1.37-3.07,2.83-4.58,4.26-2.51,2.36-5,4.7-7.55,7.06a1.16,1.16,0,0,1-1.53.25c-1.27-.69-2.59-1.3-3.85-2-4.52-2.57-9.49-4-14.39-5.57-3.2-1-6.48-1.83-9.72-2.71-.83-.23-1.68-.38-2.78-.61.49-.36.8-.54,1.06-.78,1-.88,2-1.72,2.95-2.69.56-.59.31-1.21-.43-1.6a2.39,2.39,0,0,1-.61-.49c-.4-.41-.74-.34-1.12,0a14,14,0,0,0-1.53,1.44c-.3.39-.43.8-1,1a19.91,19.91,0,0,0-2.41,1.44c-.54.32-1.1.61-1.66.89a2.27,2.27,0,0,1-1,.39c-3.06-.18-6.11-.41-9.17-.63a6.91,6.91,0,0,0-.91,0c-2.6.15-5.19.26-7.79.46-2.22.17-4.44.33-6.64.68q-5.3.84-10.55,1.94c-3.65.76-7.41,1.1-10.83,2.81-2.47,1.23-5.05,2.23-7.56,3.37-1.54.7-3.09,1.38-4.6,2.13a4.87,4.87,0,0,1-.27,1.39,42.28,42.28,0,0,0-1.88,7.31c.05,3.08-.08,6.16-.33,9.23.45.74.89,1.49,1.34,2.22,1.23,2,2.55,3.88,4,6l-6.8,3.85q-.41,2.59-.83,5.19l9.28-5.39.87-.47c.6.93,1.18,1.83,1.77,2.72l6.69,10c1,1.45,1.91,2.91,2.9,4.35a72.25,72.25,0,0,0,4.39,5.87c-1-2.08-2.07-4.15-2.95-5.94.11-.56.32-1,.21-1.16-.75-1.35-1.58-2.64-2.35-4-1-1.79-2-3.61-3.06-5.41a32.8,32.8,0,0,0-1.94-3.3,10.24,10.24,0,0,1-1.82-5.05c0-.29.36-.75.67-.95,3.82-2.43,7.66-4.82,11.48-7.25,1.1-.7,2.12-1.53,3.21-2.23a1.35,1.35,0,0,1,1-.06c1.14.39,2.27.82,3.38,1.29a19.15,19.15,0,0,1,1.86.95c.5.27,1,.55,1.49.81.77.4,1.55.79,2.33,1.16s1.61.69,2.37,1.11c1.17.65,2.3,1.39,3.45,2.07a4.14,4.14,0,0,0,1.28.6,7.22,7.22,0,0,1,3.16,1.9,19,19,0,0,0,1.94,1.19c.11.06.28.06.37.14,1.79,1.72,4.44,2.23,6,4.32a10.78,10.78,0,0,0,1.94,1.58c-.84.62-1.55,1.19-2.31,1.71-3.63,2.46-7.24,4.95-10.92,7.34q-8.91,5.79-17.9,11.41c-.36.23-.78,1-1.46.39a.64.64,0,0,0-.41.24c-.73,1.57-2.4,1.85-3.69,2.53a100.07,100.07,0,0,0-10.27,6,40.59,40.59,0,0,1-4,2.07c-.33.17-.56.53-.89.69-1.47.7-3,1.32-4.44,2.06l-6.42,3.29c.25,2.66.42,5.32.47,8,10.83-5.75,21.46-11.71,31.66-18.4,1.54,1.76,2.25,3.91,3.34,5.84s2.34,3.56,3.4,5.46l-.37-.21c.08.88.15.84,1.07,2.43.63,1.09.95,2.36,1.56,3.47,1.69,3.08,3.45,6.12,5.18,9.19a3,3,0,0,1,.42,1.4L365.56,235l-.18.12,8.19,13.31c-1.29,1.49-36.6,20.58-42,22.67-1.57-2.42-3.67-4.45-4.74-7.29-1.69-4.47-3.85-8.76-5.6-13.2a60.83,60.83,0,0,1-2-6.67,54,54,0,0,1-3.39,10.53,132.43,132.43,0,0,0,9.36,20l-4.6,2.14c-5.53,2.58-11.08,5.15-16.61,7.76,0,0,0,0-.07,0,.21,3.22.25,6.45.17,9.69,6.87,10.43,14.44,20.16,24.53,27.85-1.59.61-2.9,1.89-4.82,1.83-1.67,0-3.11.8-4.55,1.53a3.18,3.18,0,0,1-3.05-.05c-2.8-1.21-4.72-3.39-6.82-5.37s-4.13-4.21-6.16-6.34l-.34-.35a50,50,0,0,0,.92,5.2c.38.4.76.81,1.15,1.21,1.83,1.83,3.89,3.43,5.87,5.11,1,.86,2.08,1.66,3.11,2.48-.79,1.19-2.35,1.77-1.26,3.48s2.25.44,3.4.58c-.2.24-.48.3-.64.46a6.08,6.08,0,0,0-1.43,1.72c-.12.3.49,1,.9,1.36.21.19.71,0,1.05.1a1.18,1.18,0,0,1,.7.44,1.51,1.51,0,0,0,2.1.58c1.5-.59,3-1.13,4.56-1.66a1.24,1.24,0,0,1,.89,0c2.26,1.17,4.47,2.42,6.75,3.55,2.86,1.42,5.76,2.76,8.66,4.09a35.78,35.78,0,0,0,3.76,1.48c1.33.43,2.67.83,4,1.23a40.1,40.1,0,0,0,6.41-3.86c-1.82-.39-3.64-.81-5.47-1.22-.13,0-.25-.09-.39-.12-2.83-.74-5.67-1.45-8.49-2.23a27,27,0,0,1-2.49-1.07c-1.66-.66-3.34-1.27-5-1.94-.39-.16-.68-.56-1.06-.76-.81-.43-1.65-.8-2.62-1.26l1.66-.73c2.2-.95,4.43-1.85,6.59-2.87a1.83,1.83,0,0,1,2.32.42,26.85,26.85,0,0,0,3.71,2.93,57.13,57.13,0,0,0,13.68,6.41,5.59,5.59,0,0,0,1.37.14,12,12,0,0,1,7.38-1.3c6.37,1,11.7,6.45,16.29,10.55a1.79,1.79,0,0,1,.13.14c2.6-.21,5.19-.53,7.78-.82,1.47-.17,2.92-.46,4.38-.67,2-.29,4-.43,5.91-.84,2.89-.6,5.77-1.31,8.62-2.08,3.25-.87,6.48-1.85,9.71-2.81a18.12,18.12,0,0,0,1.82-.72c.91,1.64,1.82,3.18,2.63,4.76a1.24,1.24,0,0,0,1.84.59c3-1.26,4.45-3.71,4.76-6.84a17.86,17.86,0,0,0-.28-3.36,29.6,29.6,0,0,0,2.8-1.64q2.85-2.07,5.6-4.31c1.95-1.6,3.89-3.22,5.74-4.92s3.48-3.39,5.17-5.13c1.27-1.3,2.49-2.65,3.68-4,1-1.15,1.89-2.35,2.81-3.55s2-2.55,2.89-3.9,1.65-2.9,2.52-4.32c1.37-2.24,2.82-4.44,4.18-6.68.74-1.24,1.29-2.59,2.1-3.78a23.07,23.07,0,0,0,2.85-5.43c.54-1.58,1.3-3.08,1.93-4.63a11.65,11.65,0,0,1,3.67-5.21A14.55,14.55,0,0,0,476,276.1l-.12-.12-3.1,2.66c.33-1.4.52-2.49.85-3.52.56-1.73,1.23-3.41,1.8-5.13.28-.85.44-1.75.65-2.62.13-.51.26-1,.35-1.54s0-.81.1-1.2c.52-2.22,1.11-4.43,1.58-6.66.3-1.44.47-2.92.63-4.38s.13-3.18.4-4.73C479.64,246,480.21,243.1,479.64,240.14ZM335.32,171.26c-3.63-3.56-5.18-8.26-7.95-12.23,3.35-1.24,18.29,1.44,21.42,3.84Zm120.32,16.23.31-.25,2.39,3.61a3.56,3.56,0,0,1,.58,1c.06.27-.17.61-.26.92-.26-.12-.72-.21-.75-.37-.27-1.82-1.54-3.14-2.27-4.73A.61.61,0,0,1,455.64,187.49ZM380.19,146a6.65,6.65,0,0,1,2.76.1c1.72.25,3.43.61,5.14.9a1.13,1.13,0,0,0,.78-.08c1.35-1.12,2.83-.65,4.25-.32a15.87,15.87,0,0,1,3.75,1.44l-7-1.3c0,.1,0,.15.05.15,3.16,1.16,6.33,2.29,9.48,3.46,3,1.12,6,2.24,8.93,3.46,1.95.81,3.8,1.82,5.8,2.79l-3.74,3.35-3.6-1.12a2.46,2.46,0,0,1-.53-.28,22.09,22.09,0,0,0-4-2.58c-2.66-1-4.87-3-7.84-3.39a26.12,26.12,0,0,1-5.05-1.76c-2.6-1-5.43-1.16-8-2.42a10.06,10.06,0,0,0-2.84-.5l-1.08-.15A11.6,11.6,0,0,1,380.19,146Zm62.68,56.7.16.18-1.27,1.41c-.09.25-.11.58-.28.72-2,1.69-4.09,3.34-6.15,5a.73.73,0,0,1-.68.09c2-1.58,4-3.16,6-4.76a11.18,11.18,0,0,0,.9-.92l-4.67,3.39-.18-.25,4.29-3.32-.2-.27-17.51,13.18c-.44-.81-.92-1.54-1.25-2.33a23.45,23.45,0,0,0-3.65-5.44c-1.67-2.1-3.11-4.39-4.79-6.48-1.48-1.84-2.62-3.93-4.47-5.52-1.27-1.09-1.95-2.84-3.07-4.13-1.6-1.82-3.39-3.47-5-5.25-1.47-1.58-2.78-3.3-4.28-4.84-1.19-1.23-2.56-2.29-3.86-3.4-.58-.49-1.19-.94-1.87-1.47l1.71-1.4q6.63-5.43,13.24-10.86c1.78-1.48,2.45-1.45,4.19.15.29.27.87.21,1.21.45,1.56,1.11,3.09,2.25,4.62,3.4,2.35,1.78,4.75,3.51,7,5.4,2,1.68,4.26,3.18,5.51,5.66a9.41,9.41,0,0,0,1.42,1.56c1.49,1.69,3,3.36,4.43,5.08,1.09,1.32,2.12,2.69,3.11,4.07a9.6,9.6,0,0,1,.77,1.69c.1.25.14.52.26.76l2.23,4.37a24.89,24.89,0,0,0,1.4,2.66c.63.91.51,1.52-.39,2.1Zm-14.64,42.14q.7,3.18,1.61,6.32c.45,1.59,1,3.13,1.56,4.7a9.41,9.41,0,0,1,.44,1.33c.31,1.82.63,3.64.85,5.47a16.59,16.59,0,0,1,.06,3.23A1.77,1.77,0,0,1,432,267c-3.95,2.69-7.94,5.34-11.9,8-2,1.38-4,2.84-6.09,4.19-3.26,2.15-6.56,4.24-9.86,6.32-.33.2-.84.1-1.26.14l-.11-.37,12.5-8.42-.13-.24a10.89,10.89,0,0,0-1.23.62c-1.91,1.25-3.77,2.58-5.71,3.77s-3.73,2.16-5.65,3.15c-.24.12-.89-.17-1.1-.45-.78-1.06-1.39-2.24-2.19-3.28s-1.61-1.77-2.41-2.65a5.44,5.44,0,0,1-.91-1.08,11.84,11.84,0,0,0-2.85-3.33,7.78,7.78,0,0,1-1-1.18,88.72,88.72,0,0,1-6.62-11c-1.5-2.86-2.87-5.78-4.3-8.66l20.11-13.32-.2-.31c-1.67,1.06-3.32,2.12-5,3.16-2.55,1.59-5.09,3.17-7.66,4.73-2.31,1.4-4.64,2.76-7,4.11-.2.12-.54,0-.82,0,.12-.27.15-.65.36-.78,3.45-2.22,7-4.33,10.37-6.6,4.4-2.94,8.71-6,13.06-9,3-2.09,6-4.17,9-6.29,2.08-1.48,4.12-3,6.27-4.6a10.43,10.43,0,0,1,2.68,4.65,15.38,15.38,0,0,0,1.93,4.4,3,3,0,0,1,.44,1,4.74,4.74,0,0,0,1.4,3.55.57.57,0,0,1,.18.45C426.1,240.29,427.7,242.41,428.23,244.82Zm-32.06,45.65c-2,1.21-4,2.45-6,3.64q-6.51,3.83-13,7.61c-1.14.66-2.3,1.28-3.49,1.85A7.49,7.49,0,0,1,372,304l-.09-.41c1.84-1,3.7-2.05,5.52-3.12q8.79-5.16,17.55-10.34C395.44,289.81,395.93,289.43,396.17,290.47Zm-36-145.33c4.93-.42,9.86-1.48,15.1,0-1.23.94-2,2.09-3.69,1.74-2-.42-4-.67-6.08-.89-1-.11-2.08,0-3.11,0-.75,0-1.5-.21-2.24-.32Zm-2.11,12a2.33,2.33,0,0,1-2.52.27c-1.4-.56-2.88-.9-4.32-1.35-.7-.21-1.38-.47-2-.7.49-.41.87-.7,1.22-1s.42-.48.63-.72l.68.92,11.13-.62.13.49a22.19,22.19,0,0,0-2.11.94A28.35,28.35,0,0,0,358,157.15Zm10.46,5.69c-2.19-1.66-4.83-2.19-7.43-3.56,1.71-1.13,3.25-2.07,4.7-3.15.81-.6,1.49-1.35,2.63-1.22a13.75,13.75,0,0,1,1.71.16c2.69.67,5.38,1.36,8.06,2.09,2.83.78,5.65,1.61,8.47,2.43a10.94,10.94,0,0,1,2.19.77c2.27,1.28,4.58.87,7,.43a6.86,6.86,0,0,1,2.44.25,4.64,4.64,0,0,1,1.18.54c.84.47,1.66,1,2.52,1.42,1,.53,2.11,1,3.28,1.52-.86.73-1.75,1.53-2.68,2.27q-5.52,4.35-11.07,8.69c-1.78,1.4-1.76,1.4-3.58-.06s-3.52-2.83-5.33-4.18c-.78-.58-1.7-1-2.53-1.47-1.62-1-3.21-2-4.83-3A70.94,70.94,0,0,1,368.48,162.84Zm20.61,20.09c-.89,1.23-1.21,1.19-2.34-.38C387.76,181.71,388.35,182.65,389.09,182.93Zm-9.17-6.64.09-.07c1.3.75,2.65,1.42,3.86,2.28a6.44,6.44,0,0,1,1.26,1.76l-.39.32Zm-13,21-2.81,1.77-.19-.2C364.37,197.56,366,197.91,366.91,197.32ZM356,213.41l.28-.15c1.64,3.14,4,5.9,5,9.42Zm15.78,25a12.17,12.17,0,0,1-.81-1.13c-.92-1.71-1.77-3.45-2.75-5.13-.78-1.35-1.76-2.59-2.56-3.94-1.68-2.84-3.29-5.73-5-8.59-1.39-2.38-2.82-4.74-4.23-7.1-.67-1.13-1.38-2.23-2-3.38a1.5,1.5,0,0,1,.75-2.06,15.08,15.08,0,0,0,4.66-3.41c1.57,0,2.43-1.36,3.66-2a19.34,19.34,0,0,0,3-2,34.18,34.18,0,0,1,3.64-2.35,15.15,15.15,0,0,0,3.19-2.4,17.56,17.56,0,0,1,2.84-1.93c1.42-1.05,2.88-2,4.31-3.07a.85.85,0,0,0,.2-.35c-1.65,1-3.3,1.91-5,2.85a1.86,1.86,0,0,1-1,.29l.93-.74-.18-.28L371.69,194l-.16-.25c1.52-1.11,3.05-2.2,4.55-3.31,1.84-1.37,3.65-2.75,5.48-4.13L375.82,190l-.14-.2c1.3-1,2.58-2,3.89-3s2.71-2,4.07-3a2.57,2.57,0,0,1,.62-.24l.14.71c.5.25,1.23.36,1.46.76.45.79,1.23,1,1.9,1.31a3.34,3.34,0,0,1,1.52,1.52,12.17,12.17,0,0,0,1.39,1.84,51.66,51.66,0,0,0,3.67,4.14,42.25,42.25,0,0,1,3.86,4.5c1.22,1.52,2.66,2.85,3.9,4.34a21.8,21.8,0,0,1,1.44,2.49,4.42,4.42,0,0,0,.78.78,1.38,1.38,0,0,0,.1-1.95c-2.07-3.06-4-6.26-6.22-9.19-1.92-2.51-4.23-4.72-6.37-7.05-1.09-1.19-2.2-2.36-3.35-3.59a3.56,3.56,0,0,0,.59-.4c.75-.78,1.07-.27,1.49.39a15.05,15.05,0,0,0,1.45,1.76c.29.33.74.58.88,1a4.67,4.67,0,0,0,2.44,2.43c.54.3,1,.58.72,1.34a1.08,1.08,0,0,0,.34.87c1.17,1.08,2.39,2.11,3.58,3.17a.88.88,0,0,1,.34.58c0,1.58,1,2.5,2.16,3.33a13.65,13.65,0,0,1,3.87,4.7,10.46,10.46,0,0,0,.61.92,19.72,19.72,0,0,0,1.58,2.32c.93,1,2,2,3,3a5.58,5.58,0,0,1,.7.76c.39.51.63,1.22,1.13,1.55a5.65,5.65,0,0,1,2,2.7c.43,1,1,2,1.47,3a10.44,10.44,0,0,1,.17,1.16c.22.79.49,1.56.79,2.51a29.26,29.26,0,0,1-3.08,2.09c-4.7,2.48-8.9,5.71-13.27,8.69-2.59,1.77-5.38,3.24-8.07,4.86-4.66,2.79-9.31,5.61-14,8.39-1.3.78-1.53.72-2.44-.55-1.1-1.54-2.12-3.13-3.24-4.65-.59-.81-1.32-1.52-2-2.25Zm-1.88,18.37c1.8-1.11,3.6-2.2,5.43-3.26.21-.12.57,0,.87,0-.11.21-.17.52-.34.61-2.09,1.06-4.19,2.08-6.29,3.12C369.66,257.08,369.74,256.85,369.89,256.76Zm-.56.62-3.56,2.06-.18-.35Zm7.55-2.13L395,288.64c-.82.51-1.79,1.16-2.81,1.74-3.8,2.19-7.54,4.52-11.44,6.51-7,3.57-14,6.95-21.09,10.34A21.15,21.15,0,0,1,356,308.3a.93.93,0,0,1-.56-.15c-2.75-1.38-5.44-2.85-7.34-5.37-2.22-2.93-4.44-5.86-6.52-8.88-1.75-2.56-3.31-5.24-4.95-7.88a2.59,2.59,0,0,1-.39-1.1l5.15,6.82.25-.18c-.88-1.23-1.75-2.47-2.62-3.7l.11-.08,7,7.85.21-.17L335.2,278.28Zm-49.21,60.22-2-1.86.22-.23,2,1.86Zm-5.25,12.87,9.52-4.34C331.13,325.32,323.38,328.78,322.42,328.34Zm13.26-10a1.42,1.42,0,0,1-1.65-.12,93.27,93.27,0,0,1-12.5-10.9c-1.89-1.87-3.64-3.87-5.57-5.72a80.92,80.92,0,0,0,9.45,11.65,5.87,5.87,0,0,1-1.23-.68c-1.51-1.34-3.06-2.66-4.45-4.12-2.32-2.44-4.51-5-6.8-7.47-.34-.36-.93-.48-1.37-.77a2.56,2.56,0,0,1-.54-.67q-2.19-3.45-4.37-6.92a7.41,7.41,0,0,1-.41-.9l22.91-10.39A150.36,150.36,0,0,0,350.44,311l-1.62.79Q342.25,315,335.68,318.3Zm3.56,2.86a2.74,2.74,0,0,1-1.05.11l-.05-.35,14.17-7.41.12.23-4.82,2.72C344.83,318,342.05,319.62,339.24,321.16Zm39.87,13.22a17,17,0,0,0-1.86.79,7.34,7.34,0,0,1-4.56.87c-3.13-.21-6.29-.25-9.3-1.21a43.94,43.94,0,0,1-6.78-2.56c-4.21-2.12-8.29-4.48-12.43-6.75a2.3,2.3,0,0,1-.35-.32l6.42-3.19c2.54-1.26,5.09-2.51,7.61-3.8a1,1,0,0,1,1.34.14,48.44,48.44,0,0,0,5.37,4.28c4.83,3,9.76,5.77,14.68,8.58a26.25,26.25,0,0,0,3.13,1.33l.06.31C381.33,333.36,380.23,333.88,379.11,334.38Zm-2.22-12.19c-2.12-1.37-4.19-2.82-6.23-4.3a27.09,27.09,0,0,1-2.4-2.15c-.66-.61-1.31-1.24-2.11-2,11.08-5.54,21.37-12.4,31.53-19.29,1.84,3.93,3.51,7.8,5.44,11.52s4.14,7.33,6.28,11.07c-3.3,1.89-6.59,3.8-9.89,5.68-2.67,1.52-5.36,3-8,4.52a2.29,2.29,0,0,1-2.35.28,17.66,17.66,0,0,0-3-1.1A32.08,32.08,0,0,1,376.89,322.19Zm11.13,15c2.12-1.89,3.58-1.89,6.91.12A22.59,22.59,0,0,1,388,337.2Zm26.37-4.62a32.91,32.91,0,0,1-4.83.41,51.41,51.41,0,0,1-5.9-.74c-1.16-.18-2.3-.5-3.44-.79a12.71,12.71,0,0,1-1.41-.61l13.26-7.9c1.14,2.59,2.26,5.14,3.39,7.69C416,331.9,415.75,332.43,414.39,332.58Zm15-20.7-.74,3.72a2.29,2.29,0,0,1-.25.75,16,16,0,0,0-2,5.69,12,12,0,0,1-.57,1.28c-.22.69-.37,1.4-.58,2.09a6.18,6.18,0,0,1-.39.77c-.23-.16-.57-.26-.67-.47a12.72,12.72,0,0,0-.7-1.82c-1.24-1.81-1.68-3.93-2.34-5.95a1.08,1.08,0,0,1,.33-1c2.58-1.72,5.2-3.38,7.82-5.05C429.36,311.85,429.47,311.86,429.36,311.88Zm5.35-17.42c-.62,2.13-1.28,4.25-1.91,6.38a5.44,5.44,0,0,0-.32,1.48,4.31,4.31,0,0,1-2.72,3.93c-3.33,1.73-6.71,3.34-10.09,5a1.1,1.1,0,0,1-1-.09,49.45,49.45,0,0,1-5.35-4.75,31.56,31.56,0,0,1-3.54-5.44,29.18,29.18,0,0,1-1.86-4.15,20.79,20.79,0,0,1-.51-2.37,7.47,7.47,0,0,0-.47-1.3c-.48-1.08-1-2.13-1.44-3.22-.07-.17.19-.59.4-.74,2.68-1.89,5.41-3.7,8.07-5.62,5.52-4,11-8,16.5-12.07.88-.65,1.73-1.36,2.89-2.27.25,2.78.47,5.28.72,7.77.11,1.11.33,2.2.44,3.31a5.84,5.84,0,0,1,0,1.91,19,19,0,0,0-.09,6c.14,1.43,0,2.88,0,4.32a9.79,9.79,0,0,0,.12,1.19A2.4,2.4,0,0,1,434.71,294.46Zm.56-52a89.21,89.21,0,0,0-3.06-9c-1.74-4-3.83-7.81-5.82-11.67a11.7,11.7,0,0,0-1.48-1.88c6.09-4.3,12-8.68,17.77-13.31l-.25-.34-5.93,4.14-.18-.24,7.06-6.55c.73,1.41,1.4,2.75,2.12,4.06.57,1,1.19,2,1.79,3,.34.57.7,1.14,1,1.72.45.78.87,1.57,1.31,2.36a4.56,4.56,0,0,1,.41.7c.55,1.78,1.08,3.57,1.61,5.36.48,1.61,1,3.2,1.42,4.84s.67,3.35.92,5c.07.47-.2,1-.18,1.47a22.85,22.85,0,0,0,.33,2.73c.35,2.1,0,4.24.69,6.35a22,22,0,0,1,.46,5c0,.27,0,.61.11.79.77,1,.11,1.53-.55,2.12-1.41,1.26-2.63,2.84-4.23,3.74-2.94,1.66-5.13,4.21-7.89,6-.8.54-1.58,1.12-2.46,1.74-.36-1.86-.58-3.68-1.09-5.43C438,250.93,436.62,246.68,435.27,242.44Zm8.92,61.83a32.89,32.89,0,0,1-1.87,3.52c-.56.91-1.26,1.73-1.88,2.6-.44.62-.85,1.27-1.28,1.89-.22.31-.48.6-.72.9l-.22-.14a1.91,1.91,0,0,1,0-.48c.67-2.51,1.34-5,2.05-7.53a1.44,1.44,0,0,1,.56-.67c1.21-.89,2.45-1.76,3.68-2.64l.41.15A18,18,0,0,1,444.19,304.27ZM456,254.87a10,10,0,0,0-.51,4.45,20,20,0,0,1-.25,2c-.09,1.8-.07,3.61-.23,5.41-.1,1.12-.48,2.21-.68,3.33s-.35,2.31-.53,3.46c0,.23,0,.52-.17.68-1.7,2.07-1.91,4.6-2.05,7.1a18.39,18.39,0,0,1-1.38,5.17c-.45,1.24-.51,2.64-1,3.84a16.87,16.87,0,0,0-.76,3.79,2.26,2.26,0,0,1-.89,1.16c-1.65,1.26-3.35,2.47-5.21,3.83a4.56,4.56,0,0,1,0-1c.73-3.3.41-6.66.45-10,.05-3.54.09-7.1-.2-10.62-.35-4.23-1-8.44-1.61-12.65A2.26,2.26,0,0,1,442,262.2a24.61,24.61,0,0,0,2.62-2.5,20.86,20.86,0,0,1,1.76-1.28c.71-.52,1.55-.89,1.86-1.87.09-.29.58-.44.86-.69,1-.88,2-1.78,3.05-2.65.3-.25.66-.43,1-.68l3.15-2.59.27,0C456.37,251.62,456.52,253.38,456,254.87Zm16.72-9.23c-.11.46-.26.92-.36,1.39s-.18,1.13-.25,1.69c0,.39,0,.78-.05,1.17a2.81,2.81,0,0,1,.05.57c-.36,1.75-.74,3.49-1.12,5.24l-.31,0a7.3,7.3,0,0,1-.19-1.9c.73-4.46.18-8.89-.28-13.32a6.39,6.39,0,0,0-1.05-2.28c0,1,0,1.91.05,2.86.14,4.78.27,9.56-.78,14.29-.5,2.23-.69,4.52-1.07,6.77-.1.59-.5,1.12-.64,1.7-.4,1.71-.67,3.45-1.13,5.13-.64,2.34-1.37,4.65-2.15,6.95-.87,2.56-1.83,5.1-2.78,7.64a21,21,0,0,1-1,2.29c-.11.21-.44.3-.66.45-.07-.27-.24-.57-.17-.81a25.39,25.39,0,0,1,1-3.68,16.82,16.82,0,0,0,1-5.43c.12-1.9.63-3.77.94-5.66.11-.63.15-1.27.21-1.9.1-1.18.23-2.35.29-3.53.08-1.73.09-3.47.15-5.2a4.34,4.34,0,0,1,.12-1.09,15.75,15.75,0,0,0,.48-6.41c-.24-2-.23-4.1-.33-6.16a.75.75,0,0,0,0-.3c-.8-2,.57-3.07,1.8-4.24,2.38-2.26,4.69-4.58,7-6.88l-.2-.19c-1.25,1.1-2.35,2.51-3.79,3.23-2,1-3.29,2.91-5.19,4-.06,0-.14-.09-.14-.13a75.54,75.54,0,0,0-3.2-20.31c-.79-2.88-2-5.63-3.09-8.44-.83-2.21-1.59-4.45-2.54-6.61a46.18,46.18,0,0,0-2.62-4.78c-.52-.87-.62-1.54.41-2a.83.83,0,0,0,.22-.2s0-.07.11-.34l-1.41,1.1-1.07-1.74,2.71-2.15c-1.53-.35-1.83,1.33-3.16,1.47.54-.53,1-1,1.41-1.38l-.09-.15-1.68,1.14c-1.75-2.43-3.4-4.9-5.23-7.22-2.26-2.85-4.65-5.59-7-8.37q-2.88-3.4-5.78-6.77a17.36,17.36,0,0,0-1.74-1.69c-1.77-1.55-3.54-3.11-5.37-4.58-1.26-1-2.65-1.83-3.95-2.79-.92-.67-1.73-1.49-2.68-2.11s-2.16-1.16-3.25-1.72l-1.89-.92c1.64-1.42,3-2.64,4.44-3.81a.91.91,0,0,1,.79.08c2.37,1.4,4.78,2.77,7.08,4.29,3.52,2.31,7,4.64,10.41,7.14,2.21,1.65,4.19,3.61,6.27,5.43l2.94,2.63a3.9,3.9,0,0,1,.38.33c2,2.38,4,4.71,5.89,7.17,1.68,2.2,3.17,4.53,4.72,6.83a31,31,0,0,1,1.68,2.83,2.69,2.69,0,0,1,.12,1c.3.17.7.28.88.54.56.8,1,1.65,1.53,2.49.65,1.1,1.27,2.21,1.94,3.3,1.25,2,2.52,4,3.94,6a5.94,5.94,0,0,1-.66-1.52,14,14,0,0,0-1.61-4.16,5.39,5.39,0,0,1-.18-1.68c-1-2.14-2.15-4.51-3.3-6.94l.72-.57c.42.81.8,1.55,1.19,2.28.63,1.2,1.28,2.39,1.93,3.58s1.54,2.62,2.23,4,1.14,2.65,1.82,3.92a22.77,22.77,0,0,0,1.71,2.4l-1.36-.73a17.34,17.34,0,0,1,1.22,3.78c.13,1.68,1.24,2.8,1.85,4.18a11.15,11.15,0,0,1,.93,3.66,39.23,39.23,0,0,0,1.63,8.88c.47,1.45.14,3.15.19,4.73s.15,3.38.2,5.07c0,.39-.17.8-.12,1.18a35,35,0,0,1,.48,3.5A9.79,9.79,0,0,1,472.67,245.64Z" transform="translate(-9.07 -78.54)"/><path class="cls-1" d="M384.4,184.27l-2.84,2.06L375.82,190l-.13-.2c1.29-1,2.57-2,3.88-3s2.71-2,4.07-3a2.57,2.57,0,0,1,.62-.24Z" transform="translate(-9.07 -78.54)"/><path class="cls-1" d="M441.5,204.39l.26-.12c-.09.25-.11.58-.28.72-2,1.69-4.09,3.34-6.15,5a.73.73,0,0,1-.68.09c2-1.58,4-3.16,6-4.76A11.18,11.18,0,0,0,441.5,204.39Z" transform="translate(-9.07 -78.54)"/><path class="cls-1" d="M325.85,313.38l2,1.86-.21.23-2-1.86Z" transform="translate(-9.07 -78.54)"/><path class="cls-1" d="M406,206l1.92,3.52C406.41,209.72,405.43,208.06,406,206Z" transform="translate(-9.07 -78.54)"/><path class="cls-1" d="M380.72,189.48l2.46-1.93.22.33-2.71,1.59Z" transform="translate(-9.07 -78.54)"/><path class="cls-1" d="M365.47,234.68c-.66-.15-1.56-1.53-1.9-3Z" transform="translate(-9.07 -78.54)"/><path class="cls-1" d="M347.38,344.63a40.1,40.1,0,0,0,6.41-3.86c-1.82-.39-3.64-.81-5.47-1.22-.13,0-.25-.09-.39-.12-2.83-.74-5.67-1.45-8.49-2.23a27,27,0,0,1-2.49-1.07c-1.66-.66-3.34-1.27-5-1.94-.39-.16-.68-.56-1.06-.76s-.91-.46-1.4-.69a44.92,44.92,0,0,1-7.15-3.72c-1.18-.71-2.23-1.61-3.46-2.24a17.51,17.51,0,0,1-2.84-1.61c-2.72-1.21-4.61-3.35-6.67-5.29s-4.13-4.21-6.16-6.34l-.34-.35a50,50,0,0,0,.92,5.2c.38.4.76.81,1.15,1.21,1.83,1.83,3.89,3.43,5.87,5.11,1,.86,2.08,1.66,3.11,2.48l-.1.15a4.27,4.27,0,0,1,.71.89c1.12.67,2.22,1.39,3.28,2.16.43.32.87.69,1.33,1.07a42.59,42.59,0,0,1,5.07,2.83c2.25,1.16,4.46,2.41,6.73,3.54,2.86,1.42,5.76,2.76,8.66,4.09a35.78,35.78,0,0,0,3.76,1.48C344.7,343.83,346,344.23,347.38,344.63Z" transform="translate(-9.07 -78.54)"/><path class="cls-1" d="M479.64,240.14a18.74,18.74,0,0,1-.33-3c-.07-2.55,0-5.11-.14-7.66-.09-1.64-.57-3.26-.64-4.9a25.77,25.77,0,0,0-1.58-8.4,46.73,46.73,0,0,1-1.42-6.4,10.63,10.63,0,0,0-.83-2.27c-.93-1.87-2-3.68-2.87-5.56-.62-1.34-.95-2.82-1.6-4.15-1.68-3.45-3.45-6.85-5.31-10.5h-.29c-.22-.43-.35-.78-.55-1.09-1.38-2.15-2.68-4.36-4.17-6.44a54.21,54.21,0,0,0-4.62-5.74c-2.64-2.78-5.46-5.4-8.22-8.09-1.42-1.38-2.79-2.82-4.3-4.11s-2.92-2.29-4.43-3.36c-2.92-2.06-5.87-4.08-8.82-6.1-1.47-1-3-1.95-4.58-3l0,0a9.24,9.24,0,0,1-1.91-.9,1.22,1.22,0,0,1-.75-.17c-1.27-.69-2.59-1.3-3.85-2-4.52-2.57-9.49-4-14.39-5.57-3.2-1-6.48-1.83-9.72-2.71-.83-.23-1.68-.38-2.78-.61l.31-.22c-.65,0-1.29-.15-2-.22a28.34,28.34,0,0,0-3.9.16,1.77,1.77,0,0,1-.58-.08c-2.93-.18-5.86-.4-8.79-.61a6.91,6.91,0,0,0-.91,0c-2.6.15-5.2.26-7.79.46-2.22.17-4.44.33-6.64.68q-5.3.84-10.55,1.94c-3.65.76-7.41,1.1-10.83,2.81-2.47,1.23-5.05,2.23-7.56,3.37-1.54.7-3.09,1.38-4.6,2.13a4.87,4.87,0,0,1-.27,1.39,42.28,42.28,0,0,0-1.88,7.31c.05,3.08-.08,6.16-.33,9.23.44.74.89,1.49,1.34,2.22,1.21,1.93,2.51,3.82,3.9,5.93a.89.89,0,0,1,.16.21,36.82,36.82,0,0,0,2.27,3.14l.15-.08c.6.93,1.18,1.83,1.77,2.72l6.69,10c1,1.45,1.91,2.91,2.9,4.35a72.25,72.25,0,0,0,4.39,5.87c-1-2.08-2.07-4.15-2.95-5.94.11-.56.32-1,.21-1.16-.75-1.35-1.58-2.64-2.35-4-1-1.79-2-3.61-3.06-5.41a32.8,32.8,0,0,0-1.94-3.3,9.57,9.57,0,0,1-1.71-4.32c-.4-.87-.69-1.78-1.08-2.66a10.79,10.79,0,0,1-.88-2.26c-3.47-3.53-5-8.11-7.73-12,3.3-1.23,17.85,1.36,21.27,3.74a12.06,12.06,0,0,1,2.29.89,27.73,27.73,0,0,1,2.74,1.2c1,.35,2,.74,3,1.16a19.15,19.15,0,0,1,1.86.95c.5.27,1,.55,1.49.81.77.4,1.55.79,2.33,1.16s1.61.69,2.37,1.11c1.17.65,2.3,1.39,3.45,2.07a4.14,4.14,0,0,0,1.28.6,7.22,7.22,0,0,1,3.16,1.9,19,19,0,0,0,1.94,1.19c.11.06.28.06.37.14,1.79,1.72,4.44,2.23,6,4.32a6.06,6.06,0,0,0,1.38,1.17.87.87,0,0,1,.18.11c.09.06.17.14.25.2l.13.1h0c.39.31.76.65,1.12,1a2.17,2.17,0,0,1,1.64,1.83c.2.26.4.52.59.79a5.46,5.46,0,0,0,1.54.86,3.34,3.34,0,0,1,1.52,1.52,12.17,12.17,0,0,0,1.39,1.84,51.66,51.66,0,0,0,3.67,4.14,42.25,42.25,0,0,1,3.86,4.5c1.22,1.52,2.66,2.85,3.9,4.34a21.8,21.8,0,0,1,1.44,2.49,4.42,4.42,0,0,0,.78.78,1.38,1.38,0,0,0,.1-1.95c-2.07-3.06-4-6.26-6.22-9.19-1.92-2.51-4.23-4.72-6.37-7.05l-3-3.23a1.9,1.9,0,0,1-.85-.73s0,0,0,0c-.29-.08-.62-.44-1.1-1.09l-.78-.61a5.89,5.89,0,0,1-1.43-1.43.35.35,0,0,1-.06-.19l-4.66-4.15.09-.07c1.3.75,2.65,1.42,3.86,2.28A4.67,4.67,0,0,1,385,180a.34.34,0,0,1,.38.18,5.91,5.91,0,0,0,1.43,1.39c.27.23.55.46.84.68a3.69,3.69,0,0,1,1.31.63,2,2,0,0,1,.93.55c.27.07.48.39.72.77a15.05,15.05,0,0,0,1.45,1.76c.29.33.74.58.88,1a4.67,4.67,0,0,0,2.44,2.43c.54.3,1,.58.72,1.34a1.08,1.08,0,0,0,.34.87c1.17,1.08,2.39,2.11,3.58,3.17a.88.88,0,0,1,.34.58c0,1.58,1,2.5,2.16,3.33a13.65,13.65,0,0,1,3.87,4.7,10.46,10.46,0,0,0,.61.92,19.72,19.72,0,0,0,1.58,2.32c.93,1,2,2,3,3a5.58,5.58,0,0,1,.7.76c.39.51.63,1.22,1.13,1.55a5.65,5.65,0,0,1,2,2.7c.43,1,1,2,1.47,3a10.44,10.44,0,0,1,.17,1.16c.22.79.49,1.56.79,2.51l-.09.07c.6.91,1.3,1.65,1.86,2.5l.18-.13a10.43,10.43,0,0,1,2.68,4.65,15.38,15.38,0,0,0,1.93,4.4,3,3,0,0,1,.44,1,4.74,4.74,0,0,0,1.4,3.55.57.57,0,0,1,.18.45c-.24,2.61,1.36,4.73,1.89,7.14q.7,3.18,1.61,6.32c.45,1.59,1,3.13,1.56,4.7a9.41,9.41,0,0,1,.44,1.33c.31,1.82.63,3.64.85,5.47a16.46,16.46,0,0,1,.06,3.14,2.33,2.33,0,0,1,.52,1.54c0,.66,0,1.32,0,2l.15-.12c.25,2.78.47,5.28.72,7.77.11,1.11.32,2.2.44,3.31a5.78,5.78,0,0,1,0,1.9,19.11,19.11,0,0,0-.09,6c.14,1.43,0,2.88,0,4.32a9.79,9.79,0,0,0,.12,1.19,2.4,2.4,0,0,1,.07.79c-.62,2.13-1.28,4.25-1.91,6.38a5.44,5.44,0,0,0-.32,1.48,3.85,3.85,0,0,1-1.22,2.89,41.64,41.64,0,0,1-2,6.7h0c.07,0,.18,0,.07,0l-.74,3.72a2.29,2.29,0,0,1-.25.75,16,16,0,0,0-2,5.69,12,12,0,0,1-.57,1.28c-.22.69-.37,1.4-.58,2.09a6.18,6.18,0,0,1-.39.77c-.23-.16-.57-.26-.67-.47a12.72,12.72,0,0,0-.7-1.82,15.2,15.2,0,0,1-1.82-4.25,2.38,2.38,0,0,1-1.31-1.65,64,64,0,0,1-1.55-6.82l-.1-.05a49.45,49.45,0,0,1-5.35-4.75,31.56,31.56,0,0,1-3.54-5.44,29.18,29.18,0,0,1-1.86-4.15,20.79,20.79,0,0,1-.51-2.37,7.47,7.47,0,0,0-.47-1.3c-.48-1.08-1-2.13-1.44-3.22a.49.49,0,0,1,.1-.39l-.51-.93c-1-1.49-2.36-2.67-3.3-4.27a2.42,2.42,0,0,1-.23-.49.44.44,0,0,1-.1-.08c-.78-1.06-1.39-2.24-2.19-3.28s-1.61-1.77-2.41-2.65a5.44,5.44,0,0,1-.91-1.08,11.84,11.84,0,0,0-2.85-3.33,7.78,7.78,0,0,1-1-1.18,88.72,88.72,0,0,1-6.62-11c-1.5-2.86-2.87-5.78-4.3-8.66l.05,0c-.52-1.11-1.09-2.2-1.56-3.32a9.74,9.74,0,0,0-1.68-3.34l-.16-.2a3.07,3.07,0,0,1-.9-1c-1.1-1.54-2.12-3.13-3.24-4.65-.59-.81-1.32-1.52-2-2.25l.06.64a12.17,12.17,0,0,1-.81-1.13c-.92-1.71-1.77-3.45-2.75-5.13-.78-1.35-1.76-2.59-2.56-3.94-1.68-2.84-3.29-5.73-5-8.59-1.39-2.38-2.82-4.74-4.23-7.1-.67-1.13-1.38-2.23-2-3.38v0c-.64-1-1.14-2-1.7-3.07s-1.29-2-1.84-3.11a.65.65,0,0,1-.61-.22.64.64,0,0,0-.41.24,2.6,2.6,0,0,1-.41.64,1.58,1.58,0,0,1,.16.37c.58,2.23,2.28,4,3.35,6,1.1,1.57,1.75,3.34,2.67,5,1,1.85,2.34,3.56,3.4,5.46l-.37-.21c.08.88.15.84,1.07,2.43.63,1.09.95,2.36,1.56,3.47,1.69,3.08,3.45,6.12,5.18,9.19a3,3,0,0,1,.42,1.4L365.56,235l-.18.12,8.19,13.31-.12.11a1.78,1.78,0,0,1,.21.46c.38,1.48,1.43,2.64,2.14,4,.09.18.17.36.25.54h.14a.61.61,0,0,0-.07.14c.25.53.48,1.08.68,1.63l.08,0,17.85,32.91a2.9,2.9,0,0,1,.77,1.65c.28-.09.52,0,.67.66l-.47.29a28.78,28.78,0,0,0,1.88,3.77l.1-.07c1.84,3.93,3.51,7.79,5.44,11.52,1.8,3.47,3.83,6.83,5.82,10.29a1,1,0,0,1,.59.8c.29,2.14,1.57,4,2.51,5.89h0c1.14,2.59,2.26,5.14,3.39,7.69.56,1.26.29,1.79-1.07,1.94a32.91,32.91,0,0,1-4.83.41,51.41,51.41,0,0,1-5.9-.74c-1.16-.18-2.3-.5-3.44-.79a12.71,12.71,0,0,1-1.41-.61l0,0a27.57,27.57,0,0,1-2.84-1.06c-1.4-.62-2.91-1.89-4.51-1.75a1,1,0,0,1-.87-.36,2,2,0,0,1-1.49-.12,17.66,17.66,0,0,0-3-1.1,32.08,32.08,0,0,1-9.25-4.24c-2.12-1.37-4.19-2.82-6.23-4.3a27.09,27.09,0,0,1-2.4-2.15c-.66-.61-1.31-1.24-2.11-2l.09-.05c-3.48-1.51-7-2.93-9.87-5.49l-.38.09a.93.93,0,0,1-.56-.15c-2.75-1.38-5.44-2.85-7.34-5.37-2.22-2.93-4.44-5.86-6.52-8.88-1.75-2.56-3.31-5.24-4.95-7.88a2.59,2.59,0,0,1-.39-1.1l5.15,6.82.25-.18c-.88-1.23-1.75-2.47-2.62-3.7l.11-.08,7,7.85.21-.17L335.2,278.28l.1-.06c-.28-.36-.56-.72-.83-1.09a4.22,4.22,0,0,1-.72-1.57A23.32,23.32,0,0,1,331.5,271c-1.57-2.39-3.63-4.41-4.7-7.23-1.69-4.47-3.85-8.76-5.6-13.2a60.83,60.83,0,0,1-2-6.67,53.92,53.92,0,0,1-3.39,10.52,132.08,132.08,0,0,0,9.36,20l-.11,0a4.86,4.86,0,0,1,.84,1.9,7.23,7.23,0,0,0,1,2.13,21.18,21.18,0,0,1,2.11,2.78l.08,0a150.76,150.76,0,0,0,20.74,29.08,2.31,2.31,0,0,1,.75.92,14.18,14.18,0,0,1,1.92,1.74c.72.72,1.48,1.41,2.24,2.09l.28.23a42.45,42.45,0,0,0,3.41,2.7,1.09,1.09,0,0,1,.71.3l1.28,1.1.38.26a2.31,2.31,0,0,1,.57.55,26.37,26.37,0,0,0,3.14,2.37c4.83,3,9.76,5.77,14.68,8.58a26.25,26.25,0,0,0,3.13,1.33l0,.1c1.9.9,3.75,2.09,5.73,2.48h.3a.9.9,0,0,1,.48-.19,1,1,0,0,1,.84.32h.16a1,1,0,0,1,1,.57c1.07,0,2.29.47,4,1.51a22.89,22.89,0,0,1-6.76-.09l-.06,0c-2.71,0-5.32-.81-8.05-.74a16.46,16.46,0,0,1-5.87-.41c-.48,0-1,0-1.5,0-3.13-.21-6.29-.25-9.3-1.21a43.94,43.94,0,0,1-6.78-2.56c-4.21-2.12-8.29-4.48-12.43-6.75a2.3,2.3,0,0,1-.35-.32l.14-.07c-.19-.1-.36-.21-.53-.32a42.26,42.26,0,0,1-4.8-3.05,39.43,39.43,0,0,1-4.45-3.34,2.1,2.1,0,0,1-.24-.3,92.87,92.87,0,0,1-12.42-10.84c-1.89-1.87-3.64-3.87-5.57-5.72a81.6,81.6,0,0,0,9.45,11.65,5.87,5.87,0,0,1-1.23-.68c-1.51-1.34-3.06-2.66-4.45-4.12-2.32-2.44-4.51-5-6.8-7.47-.34-.36-.93-.48-1.37-.77a2.56,2.56,0,0,1-.54-.67q-2.19-3.45-4.37-6.92a7.41,7.41,0,0,1-.41-.9l.18-.08-.17-.21a3.86,3.86,0,0,1-.82-2.28c-.48-.8-.94-1.62-1.39-2.44.1,2.47.11,4.94,0,7.42,6.87,10.43,14.44,20.16,24.53,27.85l-.08,0,.21.15.83.78c.72.39,1.42.79,2.11,1.21l.25-.11a.76.76,0,0,1-.15.17c.35.22.7.42,1,.64a37.83,37.83,0,0,1,5.36,3.72,2.83,2.83,0,0,1,.66.46,26.85,26.85,0,0,0,3.71,2.93,57.13,57.13,0,0,0,13.68,6.41,5.59,5.59,0,0,0,1.37.14,12,12,0,0,1,7.38-1.3,19,19,0,0,1,8,3.49,26.27,26.27,0,0,0,7,.53,1.59,1.59,0,0,1,.29,3.16,17.64,17.64,0,0,1-2.62,0c1.28,1.14,2.51,2.28,3.69,3.34a1.79,1.79,0,0,1,.13.14c2.6-.21,5.19-.53,7.78-.82,1.47-.17,2.92-.46,4.38-.67,2-.29,4-.44,5.91-.84,2.89-.6,5.77-1.31,8.62-2.08,3.25-.87,6.48-1.85,9.71-2.81a18.12,18.12,0,0,0,1.82-.72c.91,1.64,1.82,3.18,2.63,4.76a1.24,1.24,0,0,0,1.84.59c3-1.26,4.45-3.71,4.76-6.84a17.86,17.86,0,0,0-.28-3.36,29.6,29.6,0,0,0,2.8-1.64q2.85-2.07,5.6-4.31c1.95-1.6,3.89-3.22,5.74-4.92s3.48-3.39,5.17-5.13c1.27-1.3,2.49-2.65,3.68-4,1-1.15,1.89-2.35,2.81-3.55s2-2.55,2.89-3.9,1.65-2.9,2.52-4.32c1.37-2.24,2.82-4.44,4.18-6.68.74-1.24,1.29-2.59,2.1-3.78a23.07,23.07,0,0,0,2.85-5.43c.54-1.58,1.3-3.08,1.93-4.63a15.38,15.38,0,0,1,1.8-3.32c.1-.32.2-.63.31-.94l-.17.14c.34-1.4.52-2.49.85-3.52.56-1.73,1.23-3.41,1.8-5.13.28-.85.44-1.75.65-2.62.13-.51.26-1,.35-1.54s0-.81.1-1.2c.52-2.22,1.11-4.43,1.58-6.66.3-1.44.47-2.92.63-4.38s.13-3.18.4-4.73C479.64,246,480.21,243.1,479.64,240.14ZM356,213.41l.28-.15c1.64,3.14,4,5.9,5,9.42ZM327.67,315.47l-2-1.86.22-.23,2,1.86ZM456,254.87a10,10,0,0,0-.51,4.45,20,20,0,0,1-.25,2c-.09,1.8-.07,3.61-.23,5.41-.1,1.12-.48,2.21-.68,3.33s-.35,2.31-.53,3.46c0,.23,0,.52-.17.68-1.7,2.07-1.91,4.6-2.05,7.1a18.39,18.39,0,0,1-1.38,5.17c-.45,1.24-.51,2.64-1,3.84a11.7,11.7,0,0,0-.66,3.2,1.79,1.79,0,0,1,0,.68,63.06,63.06,0,0,1-2.61,6.72,20.32,20.32,0,0,1-1,2,16.14,16.14,0,0,1-2.26,4.83,1.36,1.36,0,0,1-.49.41c-.51.77-1.11,1.49-1.65,2.25s-.85,1.27-1.28,1.89c-.22.31-.48.6-.72.9l-.22-.14a1.91,1.91,0,0,1,0-.48l1.5-5.56a1.41,1.41,0,0,1,.05-.57,34.73,34.73,0,0,1,2.24-5.27,15.19,15.19,0,0,0,.28-2.12l-.06,0a4.56,4.56,0,0,1,0-1c.73-3.3.41-6.66.45-10,.05-3.54.09-7.1-.2-10.62-.35-4.23-1-8.44-1.61-12.65a2.78,2.78,0,0,1,.08-1.4c-.09-.45-.18-.91-.26-1.36a2.41,2.41,0,0,1-.5-1.81,49.89,49.89,0,0,0-1-5c-1.23-4.28-2.56-8.53-3.91-12.77a89.21,89.21,0,0,0-3.06-9c-1.74-4-3.83-7.81-5.82-11.67a11.7,11.7,0,0,0-1.48-1.88l.09-.07a5.68,5.68,0,0,1-1.75-2.7h0c-.44-.81-.92-1.54-1.25-2.33a23.45,23.45,0,0,0-3.65-5.44c-1.67-2.1-3.11-4.39-4.79-6.48-1.48-1.84-2.62-3.93-4.47-5.52-1.27-1.09-1.95-2.84-3.07-4.13-1.6-1.82-3.39-3.47-5-5.25-1.47-1.58-2.78-3.3-4.28-4.84-1.19-1.23-2.56-2.29-3.86-3.4-.58-.49-1.19-.94-1.87-1.47l.19-.15a14.05,14.05,0,0,1-1.88-1.63l-.1-.12a9.16,9.16,0,0,1-1.3-.94c-1.76-1.41-3.52-2.83-5.33-4.18-.78-.58-1.7-1-2.53-1.47-1.62-1-3.21-2-4.83-3a70.94,70.94,0,0,1-6.69-4c-1.8-1.36-3.9-2-6-2.9a16.15,16.15,0,0,1-2.65-.88c-.82-.37-1.7-1.2-2.63-1.12a.92.92,0,0,1-.75-.28,3.52,3.52,0,0,1-.91-.24c-1.4-.56-2.88-.9-4.32-1.35-.7-.21-1.38-.47-2-.7.49-.41.87-.7,1.22-1s.42-.48.63-.72l.68.92,11.13-.62,0,.12c.91.08,1.79.38,2.71.48a28.29,28.29,0,0,1,3,.41,9.3,9.3,0,0,1,1.5.14c2.69.67,5.38,1.36,8.06,2.09,2.83.78,5.65,1.61,8.47,2.43a10.94,10.94,0,0,1,2.19.77c2.27,1.28,4.58.87,7,.43a6.86,6.86,0,0,1,2.44.25,4.32,4.32,0,0,1,1.18.54c.84.47,1.66,1,2.52,1.42s1.63.78,2.5,1.17a10.1,10.1,0,0,1,2.38.65l.14,0a2,2,0,0,1,.87.14c.68-.07,1.32.32,2.29,1.21.29.27.87.21,1.21.45,1.56,1.11,3.09,2.25,4.62,3.4,2.35,1.78,4.75,3.51,7,5.4,2,1.68,4.26,3.18,5.51,5.66a9.41,9.41,0,0,0,1.42,1.56c1.49,1.69,3,3.36,4.43,5.08,1.09,1.32,2.12,2.69,3.11,4.07a9.6,9.6,0,0,1,.77,1.69c.1.25.14.52.26.76l2.23,4.37a24.89,24.89,0,0,0,1.4,2.66,3,3,0,0,1,.22.37.36.36,0,0,1,.15.15l.51,1,.09.11,0,0,.35.71,0,0c.73,1.41,1.4,2.75,2.12,4.06.57,1,1.19,2,1.79,3,.34.57.7,1.14,1,1.72.45.78.87,1.57,1.31,2.36a4.56,4.56,0,0,1,.41.7c.55,1.78,1.08,3.57,1.61,5.36.48,1.61,1,3.2,1.42,4.84s.67,3.35.92,5c.07.47-.2,1-.18,1.47a22.85,22.85,0,0,0,.33,2.73c.35,2.1,0,4.24.69,6.35a22,22,0,0,1,.46,5c0,.27,0,.61.11.79a1.17,1.17,0,0,1,.3,1.08,3.66,3.66,0,0,1,.5,1.17,2.08,2.08,0,0,1,.1.7l.23,0C456.37,251.62,456.52,253.38,456,254.87Zm16.72-9.23c-.11.46-.26.92-.36,1.39s-.18,1.13-.25,1.69c0,.39,0,.78-.05,1.17a2.81,2.81,0,0,1,.05.57c-.36,1.75-.74,3.49-1.12,5.24l-.31,0a7.3,7.3,0,0,1-.19-1.9c.73-4.46.18-8.89-.28-13.32a6.39,6.39,0,0,0-1.05-2.28c0,1,0,1.91.05,2.86.14,4.78.27,9.56-.78,14.29-.5,2.23-.69,4.52-1.07,6.77-.1.59-.5,1.12-.64,1.7-.4,1.71-.67,3.45-1.13,5.13-.64,2.34-1.37,4.65-2.15,6.95-.87,2.56-1.83,5.1-2.78,7.64a21,21,0,0,1-1,2.29c-.11.21-.44.3-.66.45-.07-.27-.24-.57-.17-.81a25.39,25.39,0,0,1,1-3.68,16.82,16.82,0,0,0,1-5.43c.12-1.9.63-3.77.94-5.66.11-.63.15-1.27.21-1.9.1-1.18.23-2.35.29-3.53.08-1.73.09-3.47.15-5.2a4.34,4.34,0,0,1,.12-1.09,15.75,15.75,0,0,0,.48-6.41c-.24-2-.23-4.1-.33-6.16a.75.75,0,0,0,0-.3,2.63,2.63,0,0,1-.12-1.85,3.09,3.09,0,0,1-.31-1l-.12-1.28a3.09,3.09,0,0,1,0-.75A76.76,76.76,0,0,0,459,221.63c-.79-2.88-2-5.63-3.09-8.44-.83-2.21-1.59-4.45-2.54-6.61a46.18,46.18,0,0,0-2.62-4.78,2.6,2.6,0,0,1-.37-.92,3,3,0,0,1-.19-.45.41.41,0,0,1,0-.19l-.1.08c-.35-.57-.68-1.12-1.07-1.74l.09-.07,0,0c-.15-.19-.29-.39-.43-.59l-.08,0,.06-.06-.32-.4-.1.07c-1.75-2.43-3.4-4.9-5.23-7.22-2.26-2.85-4.65-5.59-7-8.37q-2.88-3.4-5.78-6.77a17.36,17.36,0,0,0-1.74-1.69c-1.77-1.55-3.54-3.11-5.37-4.58-1.26-1-2.65-1.83-3.95-2.79-.92-.67-1.73-1.49-2.68-2.11s-2.16-1.16-3.25-1.72l-1.89-.92,0-.05c-.32-.14-.62-.35-.94-.52a3.37,3.37,0,0,1-.46-.31,8.41,8.41,0,0,1-1.53-1h0a.43.43,0,0,1-.29-.25l-1.34-.42a2.46,2.46,0,0,1-.53-.28,22.09,22.09,0,0,0-4-2.58c-2.66-1-4.87-3-7.84-3.39a26.12,26.12,0,0,1-5.05-1.76c-2.6-1-5.43-1.16-8-2.42a10.06,10.06,0,0,0-2.84-.5l-.62-.09a5.3,5.3,0,0,1-1.19-.14,12.77,12.77,0,0,0-4.43-.66.93.93,0,0,1-.42-.07,2,2,0,0,1-.41,0c-2-.42-4-.67-6.08-.89-1-.11-2.08,0-3.11,0-.75,0-1.5-.21-2.24-.32,0-.17,0-.35,0-.52,4.89-.42,9.77-1.46,15,0a21.87,21.87,0,0,1,2.92.1c.92.17,1.78.51,2.69.7a9.08,9.08,0,0,1,2.25.18c1.72.25,3.43.61,5.14.9a1.13,1.13,0,0,0,.78-.08c1.35-1.12,2.83-.65,4.25-.32a15.87,15.87,0,0,1,3.75,1.44l-7-1.3c0,.1,0,.15.05.15,3.16,1.16,6.33,2.29,9.48,3.46,3,1.12,6,2.24,8.93,3.46,1.89.79,3.7,1.76,5.64,2.71a3,3,0,0,1,.45.2,4.69,4.69,0,0,1,1.51.77,1.15,1.15,0,0,1,.63.14c2.37,1.4,4.78,2.77,7.08,4.29,3.52,2.31,7,4.64,10.41,7.14,2.21,1.65,4.19,3.61,6.27,5.43l2.94,2.63a3.9,3.9,0,0,1,.38.33c2,2.38,4,4.71,5.89,7.17,1.68,2.2,3.17,4.53,4.72,6.83a31,31,0,0,1,1.68,2.83,2.69,2.69,0,0,1,.12,1c.3.17.7.28.88.54.56.8,1,1.65,1.53,2.49.65,1.1,1.27,2.21,1.94,3.3,1.25,2,2.52,4,3.94,6a5.94,5.94,0,0,1-.66-1.52,14,14,0,0,0-1.61-4.16,5.39,5.39,0,0,1-.18-1.68l-3.21-6.75s0,0-.06,0a.36.36,0,0,1-.16-.11c-.14-.21-.21-.49-.4-.65a.39.39,0,0,1-.15-.27s0,0,0,0c-.27-1.82-1.54-3.14-2.27-4.73a.61.61,0,0,1,0-.19l.31-.25,2.39,3.61a3.76,3.76,0,0,1,.56,1l0,0,.12.33a4.09,4.09,0,0,1,.23.47h0v0s0,0,0,.07h0c.42.81.8,1.55,1.19,2.28.63,1.2,1.28,2.39,1.93,3.58s1.54,2.62,2.23,4,1.14,2.65,1.82,3.92a22.77,22.77,0,0,0,1.71,2.4l-1.36-.73a17.34,17.34,0,0,1,1.22,3.78c.13,1.68,1.24,2.8,1.85,4.18a11.15,11.15,0,0,1,.93,3.66,39.23,39.23,0,0,0,1.63,8.88c.47,1.45.14,3.15.19,4.73s.15,3.38.2,5.07c0,.39-.17.8-.12,1.18a35,35,0,0,1,.48,3.5A9.79,9.79,0,0,1,472.67,245.64Z" transform="translate(-9.07 -78.54)"/><path class="cls-1" d="M301.11,169.05a24.06,24.06,0,0,1,1.69-3.51c-1.67,1.76-3.34,3.52-5,5.31A21.63,21.63,0,0,1,301.11,169.05Z" transform="translate(-9.07 -78.54)"/><path class="cls-1" d="M441.5,204.39l.26-.12c-.09.25-.11.58-.28.72-2,1.69-4.09,3.34-6.15,5a.73.73,0,0,1-.68.09c2-1.58,4-3.16,6-4.76A11.18,11.18,0,0,0,441.5,204.39Z" transform="translate(-9.07 -78.54)"/><path class="cls-1" d="M325.85,313.38l2,1.86-.21.23-2-1.86Z" transform="translate(-9.07 -78.54)"/><path class="cls-1" d="M406,206l1.92,3.52C406.41,209.72,405.43,208.06,406,206Z" transform="translate(-9.07 -78.54)"/><path class="cls-1" d="M365.47,234.68c-.66-.15-1.56-1.53-1.9-3Z" transform="translate(-9.07 -78.54)"/><path class="cls-1" d="M194.77,450c-1.73-.94-1.79-2.45-.88-3.95,1.46-2.39,3.09-4.66,4.66-7a7,7,0,0,0,1.22-2.16c-2.92.68-5.82,1.49-8.76,2-5.1.94-10.2,1.81-15.32,2.51a17.12,17.12,0,0,1-5.34-.25c-3-.55-3.84-2.49-2.19-5.24a26.65,26.65,0,0,1,4-5.08c2.56-2.59,5.3-5,8.21-7.63-2.62.37-5,.78-7.36,1a14.47,14.47,0,0,1-3.54-.14c-1.56-.25-1.88-1.4-1-2.65a26.72,26.72,0,0,1,3.43-4.17c6.44-6.26,13.91-10.77,21.56-14.95,20-10.93,40.83-20,61.65-28.94l2.37-1.06c-.94-.57-1.64-1-2.36-1.43-10.28-6-20.41-12.33-29.32-20.63a73.68,73.68,0,0,1-8.91-9.82c-6.18-8.34-6.87-13.94-3.53-23.76-2.5-1.74-5.09-3.36-7.51-5.24-13.81-10.78-20.54-25.24-19-43.85a6,6,0,0,0-1.66-4.91c-5.2-6-10-12.33-12.87-20.09-2.15-5.83-2.79-11.68.27-17.48a4,4,0,0,0-.23-2.57c-2.63-8.29-5.33-16.55-7.95-24.84-.5-1.61-.7-3.33-1-5v-6.49a36.85,36.85,0,0,1,1.24-4.07c.88-2,2.4-2.68,4-1.33a19.6,19.6,0,0,1,4.71,5.15c3.61,6.19,7,12.54,10.35,18.92C190.2,217.38,196.54,230,205,241a328.64,328.64,0,0,0,43.36,46c1.83,1.62,3.69,3.21,5.44,4.74,0-5-.11-9.94,0-14.86.48-18.47,5.37-35.38,15.37-50.46a5.19,5.19,0,0,0,.75-2.75A78,78,0,0,1,272.12,202c3.67-14,11.68-24,23.73-30.21a4,4,0,0,0,2.47-3.6c1.08-8.19,5.53-13.51,12.62-16.21a6.54,6.54,0,0,0,3.44-3c2.51-4.06,5-8.15,9.33-10.34h2c2.77,1.81,3.59,4.77,4,8,.83,6.57-.61,12.89-1.8,19.23-1.95,10.51-4,21-5.84,31.53-1.33,7.8-.48,15.65.25,23.47.77,8.17,1.61,16.34.23,24.54-1,5.76-3.29,10.91-5.87,15.95-2.42,4.72-4.84,9.44-7.38,14.07-5.43,9.91-6.41,20.4-3.79,31.44a101.21,101.21,0,0,0,10.44,26.95c3.53,6.21,8.58,9.51,15.25,10.32s13-.11,18.71-4.55a54.37,54.37,0,0,1,7.2-4.58c3.28-1.84,6.9-2.1,9.9.13,8.89,6.59,18.67,11.13,29.09,15.65-2.41.72-4.3,1.26-6.18,1.86A55.22,55.22,0,0,0,371,363c-3,2.52-5.37,5.56-6.21,9.52-2.21,10.54-8.29,17.4-16.63,22.75-9.51,6.1-19.09,11.9-29.71,15.35-13.4,4.34-26.92,3.66-40.31.23-6.8-1.75-13.41-4.45-20.05-6.9-1.47-.54-2.26-.52-3.34.82a254.34,254.34,0,0,1-28.58,30.93c-7.92,7.1-16.66,12.24-26.91,14-.18,0-.34.21-.5.32Zm191.9-100-.89-.29c-5.67-1.79-11.19-3.84-16-7.82-6.14-5.08-8-5-14.33-.2-8.16,6.2-17.24,7.83-26.86,6.25-8.18-1.33-14.6-5.79-18.71-13.77-1.59-3.07-3.23-6.12-4.61-9.29-3.35-7.72-6.06-15.68-6.21-24.34A56.92,56.92,0,0,1,306.44,271c2.3-4,4.72-8,7.09-12a46.42,46.42,0,0,0,6.24-18.22c1.15-9.42-.33-18.66-1.43-27.94a64.19,64.19,0,0,1,.48-21.24c1.78-8.31,3.79-16.61,5-25,.94-6.72.92-13.61,1.07-20.44.06-2.84-1.8-3.7-4.08-2.28-2.59,1.62-3.43,4.42-4.2,7.28-1.2,4.48-2.28,9-3.71,13.4-1.68,5.19-3.67,10.26-5.52,15.39a1.09,1.09,0,0,1-.25-.91c1.61-7.26,3.25-14.52,4.83-21.78.13-.62.11-1.75-.16-1.88a2.74,2.74,0,0,0-2.2-.15,4.66,4.66,0,0,0-2,2,33.83,33.83,0,0,0-2.52,6.06c-3.12,11.5-6.12,23-9.17,34.56-.54,2-1.1,4.07-1.66,6.1l-.25-.08c1.09-8.81,2.19-17.62,3.35-27a48.49,48.49,0,0,0-5.13,2c-5.41,2.87-8.92,7.81-11.84,13.3-4.47,8.46-6,17.83-6.26,27.36-.43,16.35-.45,32.7-.62,49-.05,4.69,0,9.39,0,14.08-4.13-16.93-3.6-34.2-3.25-51.49a60.65,60.65,0,0,0-3.05,5.57c-4.42,9.18-7.89,18.73-8.62,29.14A212.18,212.18,0,0,0,257.8,290c.37,8.07,1.78,16.1,2.86,24.12.43,3.25,1.19,6.45,1.81,9.67a59,59,0,0,1-2.66-7.44c-1.77-5.72-2.43-6.08-7.81-4.26-.31.11-.62.24-.92.38-3.32,1.5-4.83,4.55-4.07,8.34a13.12,13.12,0,0,0,.91,3.07q6.36,13.39,12.81,26.75c.37.76.83,1.47,1.24,2.2a97.34,97.34,0,0,1-7-9.42c-4.17-6.3-8.23-12.68-10.9-20-2.45-6.68.54-17.23,9.43-17.52.43,0,1.16-.9,1.19-1.42.13-2.29,0-4.6,0-6.21a70.11,70.11,0,0,1-6.59-4.68c-18.68-16.75-35.9-35.12-50.31-56.29-6.14-9-10.62-19.37-16.12-28.94C178.05,202,174,196,170,189.87a9.44,9.44,0,0,0-2.15-1.79l-.81.6c2.52,18.84,8.65,36.4,16.65,53.32l-7.36-12.49h-.64c-.21,1.48-.81,3-.55,4.44a35.9,35.9,0,0,0,2.27,7.74c3.58,8.17,8.56,15.38,13.68,22.46,3.74,5.17,7.62,10.22,11.44,15.33l-.16.18c-3.88-3.87-7.76-7.75-11.94-11.94a25.85,25.85,0,0,0-.16,4c.5,3.62,1.15,7.21,1.73,10.81,1.6,9.83,6,17.79,13.63,23.4,9.54,7,19.18,13.87,28.78,20.79.52.38,1.08.71,1.62,1.06l-.21.37-18.55-9.62a19.85,19.85,0,0,0,1.73,20,49.15,49.15,0,0,0,8.68,8.79,262.94,262.94,0,0,0,35.15,23.52c.66.37,1.3.78,2.19,1.31l-1.05.52c-22.17,10.92-44.37,21.77-66.5,32.8-7.21,3.59-14.24,7.61-21.28,11.57-1,.59-1.68,2-2.5,3,1.3.24,2.7.93,3.89.64,5.59-1.4,11.18-2.91,16.68-4.7,5.22-1.7,10.34-3.79,15.51-5.71a5.79,5.79,0,0,1-1.46,1.09c-5.91,3.37-12,6.46-17.71,10.18-5.39,3.49-10.44,7.59-15.57,11.53-.66.51-.9,1.65-1.34,2.5a9.92,9.92,0,0,0,2.51,1.39c4.79,1,9.52.21,14.12-1.19,10.83-3.3,20.8-8.84,30.75-14.37l1.68-.9c-2.31,2.45-4.85,4.52-7.17,6.84-4,4.05-8,8.23-11.86,12.43-.47.51-.88,1.91-.63,2.2a2.64,2.64,0,0,0,2.23.86c2.17-.56,4.53-1,6.34-2.3a93.86,93.86,0,0,0,10.72-8.86c12.64-12.2,25.09-24.63,37.72-36.85A122.94,122.94,0,0,1,281.19,378a11.43,11.43,0,0,1,1.28-.59l.11.26L260,400.67c2.65,1.11,5,2.19,7.43,3.09,8.27,3.07,16.91,4.06,25.49,5.34,8.19,1.22,16.24.8,24.1-2.31,9-3.58,17.57-8.31,26-13.23,6.22-3.61,11.64-8.05,14.7-15.17a70.24,70.24,0,0,0,3.32-9.18A19.18,19.18,0,0,1,368.9,358C374.4,354.19,380.46,352,386.67,350Z" transform="translate(-9.07 -78.54)"/><text class="cls-2" transform="translate(261.83 372.66)">2019</text></svg>