<?xml version="1.0" encoding="utf-8"?>
<!-- Generator: Adobe Illustrator 21.0.0, SVG Export Plug-In . SVG Version: 6.00 Build 0)  -->
<svg version="1.1" id="Layer_2" xmlns="http://www.w3.org/2000/svg" xmlns:xlink="http://www.w3.org/1999/xlink" x="0px" y="0px"
	 viewBox="0 0 600 600" style="enable-background:new 0 0 600 600;" xml:space="preserve">
<style type="text/css">
	.st0{fill:none;}
	.st1{font-family:'SanFranciscoDisplay-Bold';}
	.st2{font-size:24px;}
</style>
<g>
	<g>
		<path d="M190.3,400.3c-4.2,1-7.7,3.5-12.1,3.7c-1.4,0.1-2.4-0.4-3.1-1.1c1.6,2.3,3.4,4.6,5.2,6.7c0.1-0.1,0.2-0.2,0.3-0.2
			c3.9-2.4,7.3-5.4,11-8L190.3,400.3z"/>
		<path d="M434.3,310.4c-1.4,1.8-2.6,3.5-4.4,4.9c-0.5,0.4-1.5,0.9-2,1.4c0.9,2.3,0.6,4.9-1.7,6.2c-0.4,0.2-0.9,0.4-1.4,0.5
			c-0.1,3-0.2,6-0.3,8.9c-0.8,15.4-3,30.4-8.7,44.8c-7.1,18.1-18.9,32.3-34.5,43.4c-14.2,10-30,16.6-46.4,21.6
			c-11.2,3.4-22.6,6.5-33.8,9.9c-2.5,0.8-5,2-7.5,2.9c-0.7,0.3-1.8,0.4-2.3,0c-13.1-8.7-27.8-13.6-42.4-18.8
			c-11.8-4.2-23.5-8.5-34.5-14.6c-1.7,1.3-3.5,2.6-5.2,4c-2,1.6-5.3,0.3-6.4-1.7c-1.4-2.4-0.3-4.9,1.7-6.4c0.8-0.6,1.7-1.3,2.5-1.9
			l-1.9-1.7c-5.3,1.1-10.3,3.3-15,6.1c7.3,6.4,15.7,11.8,25.3,16.2c11.6,5.3,23.8,9.6,35.8,14.1c10.9,4.1,21.9,7.8,31.8,14.3
			c3.6,2.3,6.8,5.1,10.2,7.8c0.3-2.2,1.8-3.8,3.7-4.8c2.1-1.1,4.3-2.3,6.6-2.9c11.1-3.3,22.2-6.4,33.2-9.7
			c15.2-4.6,29.9-10.3,43.6-18.6c19.1-11.5,34.1-26.8,43.9-47.2c8.1-17,11.4-35.1,12.5-53.8c0.5-9,0.6-18,0.4-27
			C436.1,308.7,435.2,309.3,434.3,310.4z"/>
		<path d="M349,118.3c-0.2,1.3-0.4,2.5-0.6,3.8c4-0.9,8.6-2.1,12.7-1.9c0.5-2.3,1.2-4.7,2-7c1-2.9,1-2.8-1.5-4.6
			c-22.2-15-44.3-30-66.4-45c-1.4-0.9-2.3-1-3.7,0c-8.9,6.4-17.8,12.7-26.7,19c-13.1,9.3-26.1,18.6-39.2,27.8
			c-0.9,0.7-1,1.2-0.7,2.3c1,2.8,1.9,5.7,2.6,8.6c4,18.6-7.1,34.2-25.7,36c-10.3,1-19.6-2.1-28.1-7.9c-1.2-0.8-2-0.9-3.2,0
			c-7.6,5.1-15.3,10.2-22.9,15.3c-4,2.7-8,5.3-12.3,8.2c5.5,2.8,9,7.1,11.6,12.3c4.1,8.5,5.6,17.7,6.5,27c1.5,16.3,1,32.6-0.3,48.9
			c-1.7,21.7-3,43.4-1.4,65.2c1.1,15,3.4,29.7,7.7,44.1c3.5,11.7,8.4,22.1,14.7,31.3c-1.3-2.7,0.1-6.8,4-7c1.8-0.1,3.5-0.8,5.2-1.6
			c-4.9-7.5-8.6-15.5-11.4-24.1c-4.7-14.2-6.9-28.7-8-43.6c-1.6-21.5-0.1-42.9,1.4-64.4c1.3-18,1.9-36-0.2-54
			c-1.3-11.1-3.7-22-9.6-31.7c-0.1-0.2-0.1-0.4-0.3-0.8c5.4-3.6,10.8-7.2,16.2-10.7c0.6-0.4,1.8,0,2.5,0.4
			c8.4,4.1,17.3,6.4,26.7,5.8c14.2-0.9,25.9-6.7,33.7-19.2c5.4-8.6,7-18.1,5.8-28.2c-0.2-1.6-0.3-3.1-0.8-4.6
			c-0.5-1.6,0.2-2.3,1.4-3.1c11.8-8.3,23.5-16.7,35.3-25c5.3-3.8,10.6-7.5,15.9-11.3c1.2-0.8,2-0.8,3.2,0
			c17.3,11.8,34.7,23.6,52.1,35.3C349.1,115,349.4,116.2,349,118.3z"/>
	</g>
	<g>
		<path d="M475,492.6c-20.7,15.1-41.4,29.6-69.2,27.6c-10.8-0.8-20.4-5.1-29.1-11c-9.3-6.2-18.4-12.9-27.7-19.1
			c-13-8.6-26.2-11.4-37.5-8.8c23,15.5,46.4,31.3,70.4,47.6c-3.7,4.4-6.5,7.9-9.2,11.2c-12.1-10.7-23.2-21.9-35.9-31.3
			c-11-8.2-23.6-14.7-35.8-21.2c-2.6-1.4-7.4-0.9-10.3,0.4c-20,9.4-36.1,23.8-51.8,38.7c-3.6,3.4-7.1,7-11,11
			c-3.1-3.7-5.9-7-9.6-11.4c20.5-14.3,40.6-28.4,60.8-42.5c0-0.3,0.1-0.5,0.1-0.8c-5.8,1.5-12.1,2.1-17.3,4.7
			c-9.1,4.7-17.5,10.6-26.2,16c-7.2,4.5-14,9.7-21.5,13.7c-13.7,7.2-28.3,8-43.2,3.7c-17.3-5-32.1-14.4-47.5-26
			c5.3,0.5,9.1,0.9,12.8,1.3c32.3,3.8,62.9-1.6,92.2-15.4c8.9-4.2,18.4-7.3,28-9.7c12.1-3,24-0.6,35.7,3.2c2.3,0.8,5.6,1.1,7.7,0.1
			c23.1-10.9,45.5-9,68.3,1.4c12.7,5.8,25.9,10.7,39.4,14.3C429.5,496.4,452.2,495.2,475,492.6z"/>
		<path d="M119.4,436.1c-11.5-14.4-12.6-31.5-14.8-48.3c-1.7-12.7-4.4-25.3-6.7-38.3c11.6,15.2,23.1,30.6,28.1,49
			c6.2,22.6,15.9,43,31.2,61c0.5,0.6,0.8,1.3,1.8,3c-4.2-1-7.4-1.8-10.7-2.6c-25.3-6.3-50.8-12.2-74.6-23.3
			c-17.5-8.2-29.5-20.7-34.2-39.4c-2-8.1-4.5-16-6-24.3c4.9,6.5,9.7,13.1,14.8,19.4c6.6,8.2,14.6,14.8,24.4,19
			C89.1,418.3,105.7,424.4,119.4,436.1z"/>
		<path d="M501.3,346.9c-2.9,18.4-5.3,37.6-9.1,56.5c-2,9.9-6.5,19.4-9.1,27.1c7.1-4,16.4-9.3,25.8-14.5c0.7-0.4,1.4-0.7,2.1-0.9
			c24-7.4,41.1-22.7,53.4-43.6c0.3-0.5,0.8-0.8,1.8-1.7c-5.4,27.2-12.4,52.1-41.5,64.4c-26.5,11.2-54.3,17.8-82.1,24.6
			c-0.3,0.1-0.7-0.2-1.5-0.4c4.6-6.2,9.3-12.2,13.6-18.5c7.8-11.5,13.1-24,16.6-37.4C476.7,381.3,488.7,363.4,501.3,346.9z"/>
		<path d="M74.7,379.1c-10.3-29.7-2.5-58.8,2.3-87.9c0.7-0.1,1.4-0.3,2.1-0.4c2,7.5,4.8,14.9,5.8,22.5c2,14.3,3,28.6,4.3,43
			c1.8,19.1,5.4,37.9,12.1,56c0.3,0.8,0.5,1.7,1,3.8c-29.7-18.7-59.2-35.7-77.8-65c-10.3-16.3-13.6-34.4-12.3-53.8
			c0.9,1.5,1.8,3,2.5,4.5c9.4,19.2,21.8,36.1,39.1,49.7c7,5.6,11.7,14,17.2,21.3C72.5,374.7,73.5,377,74.7,379.1z"/>
		<path d="M522,286.9c7.1,34.4,12.2,59,2.1,89.9c4-6.2,6.9-11.5,10.6-16.3c3.5-4.5,7.1-9.2,11.7-12.7c16.7-12.7,28.6-28.9,37.5-47.3
			c1-2,2.2-4,3.3-6c0.6,0.1,1.3,0.2,1.9,0.3c-1.2,9.3-1.8,18.8-3.7,28c-3.4,16.4-12.1,30.2-23.5,42.6
			c-12.3,13.4-46.1,38.1-63.8,46.6c0.1-1.1-0.1-2,0.2-2.8c9.3-24.5,11.6-50.1,14-75.8c1.2-13.5,4.4-26.8,6.8-40.2
			C519.6,291.2,520.9,289.4,522,286.9z"/>
		<path d="M552,302.2c8.5-23.2,17.2-46.2,25.3-69.4c2.8-8.1,4-16.7,6.5-25c5.4,15.5,8.3,31.3,6.6,47.7c-1.5,14.8-6.3,28.4-13.7,41.3
			c-10.1,17.5-23.3,32.5-38.2,48.1c0.4-7.1,0.8-13,1.1-18.9c0.5-13.2-2.3-26-6.7-38.4c-7.8-22-11.1-44.8-11.7-68.1
			C536,245.5,553.9,270.4,552,302.2z"/>
		<path d="M47.6,303.9c-1.4-30.6,16-55.3,30.3-81c0.6,0.1,1.1,0.2,1.7,0.3c-1.1,10.2-1.6,20.5-3.6,30.5c-2.7,13.5-6,27-10.1,40.2
			c-4.9,15.5-6.8,31-4.8,47.1c0.2,1.8,0.2,3.7,0.4,7.2c-5.6-6-10.4-10.9-14.7-16c-15.4-18-29.3-36.9-35-60.3
			c-5.2-20.9-2.4-41.3,4.9-61.5c1.1,5,2.1,9.9,3.3,14.9c1.2,5,2.2,10,3.8,14.9c2.9,8.8,6.2,17.5,9.5,26.2
			C37.9,278.9,42.9,291.6,47.6,303.9z"/>
		<path d="M522.3,445.2c-8.7,8.7-17.1,17.7-26.1,26.1c-15.8,14.6-35.4,18.3-56.5,16.7c-25.5-1.9-49.9-8.5-75.3-16.2
			c9-3.6,16.9-6.9,25-10c10.2-3.9,18.2-10.4,26-17.8c14.3-13.4,29.7-25.6,44.7-38.4c1.1,1.3,1.5,1.7,1.4,1.8
			c-7.7,13.8-15.2,27.7-23.4,41.3c-5.6,9.4-14.5,15.6-25,19.7c21-0.9,41.7-1.3,62.3-2.9c15.4-1.3,28.2-9.4,40.8-17.6
			c1.8-1.1,3.5-2.3,5.2-3.5C521.7,444.6,522,444.9,522.3,445.2z"/>
		<path d="M233.8,474.1c-25.6,8.8-50.9,15.8-77.5,17.1c-20.4,1-38.9-3.6-53.9-17.8c-8.2-7.8-15.9-16-23-25c3.3,2.1,6.7,4.1,10,6.2
			c16,10.5,33.6,15.4,53.1,15.3c15-0.1,30,0.9,44.4,1.4c-16.7-5.1-25.8-18.6-33.6-33.5c-4.8-9.3-10.1-18.4-15.4-28
			c0.9,0.3,1.7,0.3,2.2,0.7c16.2,13.6,32.8,26.9,48.5,41.1c8.5,7.6,18.5,11.9,28.6,16.2C222.7,470,228.3,472,233.8,474.1z"/>
		<path d="M553.4,224.9c1.6-20.3,3.9-42.2,4.8-64.1c0.4-10.2-1.9-20.5-2.8-29.5c7.4,4.6,17.6,24.2,19.2,36.6
			c1.8,14-0.3,27.6-3.4,41.2c-4.6,19.9-9.5,39.8-15.3,59.6c-0.7-2.7-1.4-5.4-2.1-8.2c-3.7-14.7-11.3-27.3-21.2-38.9
			c-10.3-12-20.4-24.1-24.5-39.6c-1.7-6.6-2.9-13.3-3.5-20.3c0.6,0.8,1.3,1.5,1.7,2.3c4.4,8.9,10.8,16.1,18.9,22.1
			C546.5,202,546.4,202.1,553.4,224.9z"/>
		<path d="M42.9,271.7c-6.3-29.7-16.8-58.1-18.3-88.1c-1-20,7-36.7,21.4-50.8c-9,20.8-3,41.8-1.8,62.8c0.7,11.9,0.1,23.8,1.4,35.8
			c0.9-3.6,1.9-7.2,2.8-10.7c3.1-11.2,9.1-20.5,19.3-26.8c11.6-7.2,21.3-16,26.5-28.7c0.6,0.2,1.3,0.5,1.9,0.7
			c-2.3,8.7-3.4,17.9-7.1,25.9c-4.4,9.5-10.3,18.8-17.1,26.9c-12.8,15.4-23.8,31.4-27.6,51.2C44.4,270.3,43.8,270.7,42.9,271.7z"/>
		<path d="M53.3,199.8c-2.2-22.4-4.5-44.6,0.2-66.5C57.7,113.5,72,101.7,90.8,92c-3.7,5.6-6.8,10-9.5,14.5
			c-7.2,11.5-11.8,23.7-13.2,37.3c-0.9,8.4-3.1,16.7-4.6,24.3c4.5-6.2,9-13.3,14.5-19.6c4.3-4.8,9.5-9.1,14.9-12.7
			c10.1-6.8,20.7-13,27.5-23.9c2.3,12.9-7.1,32.7-19.2,41.5c-2.8,2-5.6,4.2-8.7,5.8C75.2,168.8,60.4,180.6,53.3,199.8z"/>
		<path d="M478.8,109c7.1,10.2,17.1,16.7,27.3,23.1c11.1,6.9,19.4,16.4,26,27.3c1.2,2,2.5,4,4.1,6.6c-5.3-26.9-6.6-54.3-26.5-75.6
			c15.2,6.9,28.5,15.9,33.5,31.7c3.4,10.9,4.6,22.6,5.3,34.1c0.9,13.6,0.2,27.3,0.2,40.9c-0.8,0.1-1.5,0.2-2.3,0.3
			c-0.6-1.2-1.4-2.3-1.9-3.5c-5.5-13.3-14.5-23.7-26.9-31.4c-4.9-3.1-9.8-6.3-14.8-9.3C486.1,143.1,480,127.3,478.8,109z"/>
		<path d="M520.6,136c-13.3-9.6-25.1-18.8-34.2-30.9c-11.6-15.4-23.5-30.6-34.7-45.2c15.5,6.8,32.8,13.1,46.3,25.8
			c3.3,3.1,6.3,7,8,11C511.1,109.3,515.5,122.2,520.6,136z"/>
		<path d="M149.6,63.3c-4.8,5.1-9.9,9.9-14.3,15.3c-10,12.6-19,25.9-29.6,38c-7.1,8.1-16.2,14.5-24.5,21.7c-0.5-0.4-1.1-0.7-1.6-1.1
			c0.9-2.2,1.8-4.3,2.6-6.5c2.5-7.3,5.1-14.7,7.5-22.1c3.6-11,9.7-20.4,20.1-26.3c12.7-7.2,25.8-13.7,38.7-20.5
			C148.9,62.3,149.3,62.8,149.6,63.3z"/>
	</g>
	<g>
		<g>
			<path d="M301,150.5c0.5-1.2,1-2.4,1.7-3.5c-1.7,1.8-3.3,3.5-5,5.3C298.8,151.5,299.9,150.9,301,150.5z"/>
			<path d="M479.5,221.5c-0.2-1-0.3-2-0.3-3c-0.1-2.6,0-5.1-0.1-7.7c-0.1-1.6-0.6-3.3-0.6-4.9c-0.1-2.9-0.5-5.7-1.6-8.4
				c-0.8-2-0.9-4.3-1.4-6.4c-0.2-0.8-0.5-1.6-0.8-2.3c-0.9-1.9-2-3.7-2.9-5.6c-0.6-1.3-1-2.8-1.6-4.1c-1.7-3.4-3.5-6.9-5.3-10.5
				c0.2-0.2,0.5-0.5,0.8-0.8c0,0,0,0-0.1-0.1c-0.3,0.3-0.7,0.6-1.1,0.9c-0.2-0.4-0.4-0.8-0.6-1.1c-1.4-2.2-2.7-4.4-4.2-6.4
				c-1.4-2-2.9-4-4.6-5.7c-2.6-2.8-5.5-5.4-8.2-8.1c-1.4-1.4-2.8-2.8-4.3-4.1c-1.4-1.2-2.9-2.3-4.4-3.4c-2.9-2.1-5.9-4.1-8.8-6.1
				c-1.5-1-3-2-4.6-3c1.4-1.4,2.8-2.7,4.1-4.1c1.3-1.4,2.5-2.8,3.6-4.3s2.7-2.5,3.4-4.3c-1.6,1.4-3.1,2.8-4.6,4.3
				c-2.5,2.4-5,4.7-7.6,7.1c-0.5,0.4-0.9,0.6-1.5,0.3c-1.3-0.7-2.6-1.3-3.8-2c-4.5-2.6-9.5-4-14.4-5.6c-3.2-1-6.5-1.8-9.7-2.7
				c-0.8-0.2-1.7-0.4-2.8-0.6c0.5-0.4,0.8-0.5,1.1-0.8c1-0.9,2-1.7,2.9-2.7c0.6-0.6,0.3-1.2-0.4-1.6c-0.2-0.1-0.4-0.3-0.6-0.5
				c-0.4-0.4-0.7-0.3-1.1,0c-0.5,0.5-1.1,0.9-1.5,1.4c-0.3,0.4-0.4,0.8-1,1c-0.9,0.3-1.6,1-2.4,1.4c-0.5,0.3-1.1,0.6-1.7,0.9
				c-0.3,0.2-0.7,0.4-1,0.4c-3.1-0.2-6.1-0.4-9.2-0.6c-0.3,0-0.6,0-0.9,0c-2.6,0.1-5.2,0.3-7.8,0.5c-2.2,0.2-4.4,0.3-6.6,0.7
				c-3.5,0.6-7.1,1.2-10.6,1.9c-3.7,0.8-7.4,1.1-10.8,2.8c-2.5,1.2-5,2.2-7.6,3.4c-1.5,0.7-3.1,1.4-4.6,2.1c0,0.4-0.1,0.9-0.3,1.4
				c-0.8,2.3-1.4,4.7-1.9,7.3c0.1,3.1-0.1,6.2-0.3,9.2c0.4,0.7,0.9,1.5,1.3,2.2c1.2,2,2.5,3.9,4,6c-2.2,1.2-4.5,2.5-6.8,3.8
				c-0.3,1.7-0.5,3.5-0.8,5.2c3.1-1.8,6.2-3.6,9.3-5.4c0.3-0.2,0.5-0.3,0.9-0.5c0.6,0.9,1.2,1.8,1.8,2.7c2.2,3.3,4.5,6.7,6.7,10
				c1,1.4,1.9,2.9,2.9,4.3c1.4,2,2.8,4,4.4,5.9c-1-2.1-2.1-4.1-3-5.9c0.1-0.6,0.3-1,0.2-1.2c-0.7-1.3-1.6-2.6-2.3-4
				c-1-1.8-2-3.6-3.1-5.4c-0.6-1.1-1.2-2.3-1.9-3.3c-1.1-1.5-1.6-3.2-1.8-5c0-0.3,0.4-0.8,0.7-1c3.8-2.4,7.7-4.8,11.5-7.2
				c1.1-0.7,2.1-1.5,3.2-2.2c0.3-0.2,0.7-0.2,1-0.1c1.1,0.4,2.3,0.8,3.4,1.3c0.6,0.3,1.2,0.6,1.9,1c0.5,0.3,1,0.6,1.5,0.8
				c0.8,0.4,1.5,0.8,2.3,1.2s1.6,0.7,2.4,1.1c1.2,0.7,2.3,1.4,3.5,2.1c0.4,0.2,0.8,0.5,1.3,0.6c1.3,0.2,2.2,1.1,3.2,1.9
				c0.6,0.5,1.3,0.8,1.9,1.2c0.1,0.1,0.3,0.1,0.4,0.1c1.8,1.7,4.4,2.2,6,4.3c0.4,0.6,1.2,1,1.9,1.6c-0.8,0.6-1.6,1.2-2.3,1.7
				c-3.6,2.5-7.2,5-10.9,7.3c-5.9,3.9-11.9,7.6-17.9,11.4c-0.4,0.2-0.8,1-1.5,0.4c0,0-0.3,0.1-0.4,0.2c-0.7,1.6-2.4,1.8-3.7,2.5
				c-3.5,1.8-7,3.7-10.3,6c-1.2,0.8-2.7,1.4-4,2.1c-0.3,0.2-0.6,0.5-0.9,0.7c-1.5,0.7-3,1.3-4.4,2.1c-2.1,1.1-4.3,2.2-6.4,3.3
				c0.2,2.7,0.4,5.3,0.5,8c10.8-5.7,21.5-11.7,31.7-18.4c1.5,1.8,2.3,3.9,3.3,5.8c1,1.9,2.3,3.6,3.4,5.5c-0.1-0.1-0.2-0.1-0.4-0.2
				c0.1,0.9,0.2,0.8,1.1,2.4c0.6,1.1,1,2.4,1.6,3.5c1.7,3.1,3.5,6.1,5.2,9.2c0.2,0.4,0.4,0.9,0.4,1.4c-0.4-0.6-0.9-1.1-1.3-1.7
				c-0.1,0-0.1,0.1-0.2,0.1c2.7,4.4,5.5,8.9,8.2,13.3c-1.3,1.5-36.6,20.6-42,22.7c-1.6-2.4-3.7-4.5-4.7-7.3
				c-1.7-4.5-3.8-8.8-5.6-13.2c-0.8-2.1-1.4-4.4-2-6.7c-0.8,3.6-1.9,7.1-3.4,10.5c2.5,6.9,5.7,13.5,9.4,20c-1.5,0.7-3.1,1.4-4.6,2.1
				c-5.5,2.6-11.1,5.2-16.6,7.8c0,0,0,0-0.1,0c0.2,3.2,0.2,6.5,0.2,9.7c6.9,10.4,14.4,20.2,24.5,27.8c-1.6,0.6-2.9,1.9-4.8,1.8
				c-1.7-0.1-3.1,0.8-4.6,1.5c-1.1,0.5-1.9,0.5-3.1-0.1c-2.8-1.2-4.7-3.4-6.8-5.4c-2.1-2-4.1-4.2-6.2-6.3c-0.1-0.1-0.2-0.2-0.3-0.3
				c0.2,1.8,0.5,3.5,0.9,5.2c0.4,0.4,0.8,0.8,1.1,1.2c1.8,1.8,3.9,3.4,5.9,5.1c1,0.9,2.1,1.7,3.1,2.5c-0.8,1.2-2.4,1.8-1.3,3.5
				c1,1.6,2.2,0.4,3.4,0.6c-0.2,0.2-0.5,0.3-0.6,0.5c-0.5,0.5-1.2,1.1-1.4,1.7c-0.1,0.3,0.5,1,0.9,1.4c0.2,0.2,0.7,0,1,0.1
				s0.6,0.2,0.7,0.4c0.5,0.8,1.2,0.9,2.1,0.6c1.5-0.6,3-1.1,4.6-1.7c0.3-0.1,0.7-0.1,0.9,0c2.3,1.2,4.5,2.4,6.7,3.5
				c2.9,1.4,5.8,2.8,8.7,4.1c1.2,0.6,2.5,1.1,3.8,1.5s2.7,0.8,4,1.2c2.3-1,4.4-2.5,6.4-3.9c-1.8-0.4-3.6-0.8-5.5-1.2
				c-0.1,0-0.3-0.1-0.4-0.1c-2.8-0.7-5.7-1.4-8.5-2.2c-0.9-0.2-1.6-0.7-2.5-1.1c-1.7-0.7-3.3-1.3-5-1.9c-0.4-0.2-0.7-0.6-1.1-0.8
				c-0.8-0.4-1.7-0.8-2.6-1.3c0.6-0.3,1.2-0.5,1.7-0.7c2.2-0.9,4.4-1.8,6.6-2.9c1-0.4,1.6-0.3,2.3,0.4c1.2,1.1,2.4,2.1,3.7,2.9
				c4.3,2.7,8.8,4.9,13.7,6.4c0.4,0.1,0.9,0.1,1.4,0.1c2.2-1.1,4.6-1.7,7.4-1.3c6.4,1,11.7,6.4,16.3,10.5c0.1,0,0.1,0.1,0.1,0.1
				c2.6-0.2,5.2-0.5,7.8-0.8c1.5-0.2,2.9-0.5,4.4-0.7c2-0.3,4-0.4,5.9-0.8c2.9-0.6,5.8-1.3,8.6-2.1c3.3-0.9,6.5-1.9,9.7-2.8
				c0.6-0.2,1.2-0.5,1.8-0.7c0.9,1.6,1.8,3.2,2.6,4.8c0.5,0.9,1.1,0.9,1.8,0.6c3-1.3,4.5-3.7,4.8-6.8c0.1-1.1-0.2-2.2-0.3-3.4
				c0.8-0.5,1.9-1,2.8-1.6c1.9-1.4,3.8-2.8,5.6-4.3c2-1.6,3.9-3.2,5.7-4.9c1.8-1.6,3.5-3.4,5.2-5.1c1.3-1.3,2.5-2.6,3.7-4
				c1-1.1,1.9-2.4,2.8-3.5c1-1.3,2-2.5,2.9-3.9s1.7-2.9,2.5-4.3c1.4-2.2,2.8-4.4,4.2-6.7c0.7-1.2,1.3-2.6,2.1-3.8
				c1.2-1.7,2.2-3.5,2.9-5.4c0.5-1.6,1.3-3.1,1.9-4.6c0.8-2,1.9-3.9,3.7-5.2c0.6-0.4,1-1,1.5-1.5l-0.1-0.1c-1,0.8-1.9,1.7-3.1,2.7
				c0.3-1.4,0.5-2.5,0.9-3.5c0.6-1.7,1.2-3.4,1.8-5.1c0.3-0.9,0.4-1.7,0.7-2.6c0.1-0.5,0.3-1,0.3-1.5c0.1-0.4,0-0.8,0.1-1.2
				c0.5-2.2,1.1-4.4,1.6-6.7c0.3-1.4,0.5-2.9,0.6-4.4c0.2-1.6,0.1-3.2,0.4-4.7C479.5,227.4,480.1,224.5,479.5,221.5z M335.2,152.7
				c-3.6-3.6-5.2-8.3-8-12.2c3.3-1.2,18.3,1.4,21.4,3.8C344.1,147.1,339.6,149.9,335.2,152.7z M455.5,168.9l0.3-0.2
				c0.8,1.2,1.6,2.4,2.4,3.6c0.2,0.3,0.5,0.6,0.6,1c0.1,0.3-0.2,0.6-0.3,0.9c-0.3-0.1-0.7-0.2-0.7-0.4c-0.3-1.8-1.5-3.1-2.3-4.7
				C455.5,169,455.5,168.9,455.5,168.9z M380.1,127.4c0.8-0.3,1.8,0,2.8,0.1c1.7,0.3,3.4,0.6,5.1,0.9c0.3,0,0.6,0.1,0.8-0.1
				c1.3-1.1,2.8-0.7,4.2-0.3c1.3,0.3,2.5,0.8,3.8,1.4c-2.3-0.4-4.6-0.9-7-1.3c0,0.1,0,0.1,0,0.2c3.2,1.2,6.3,2.3,9.5,3.5
				c3,1.1,6,2.2,8.9,3.5c1.9,0.8,3.8,1.8,5.8,2.8c-1.3,1.2-2.6,2.3-3.7,3.4c-1.3-0.4-2.5-0.8-3.6-1.1c-0.2-0.1-0.4-0.2-0.5-0.3
				c-1.3-0.9-2.5-2-4-2.6c-2.7-1-4.9-3-7.8-3.4c-1.7-0.2-3.4-1.1-5.1-1.8c-2.6-1-5.4-1.2-8-2.4c-0.8-0.4-1.9-0.3-2.8-0.5
				c-0.3,0-0.5-0.1-1.1-0.2C378.5,128.4,379.2,127.7,380.1,127.4z M442.8,184.1c0.1,0.1,0.1,0.1,0.2,0.2c-0.4,0.5-0.8,0.9-1.3,1.4
				c-0.1,0.2-0.1,0.6-0.3,0.7c-2,1.7-4.1,3.3-6.1,5c-0.2,0.1-0.4,0.2-0.7,0.1c2-1.6,4-3.2,6-4.8c0.3-0.3,0.6-0.6,0.9-0.9l-4.7,3.4
				c-0.1-0.1-0.1-0.2-0.2-0.2c1.4-1.1,2.9-2.2,4.3-3.3c-0.1-0.1-0.1-0.2-0.2-0.3c-5.8,4.4-11.6,8.7-17.5,13.2
				c-0.4-0.8-0.9-1.5-1.2-2.3c-0.9-2.1-2.3-3.7-3.7-5.4c-1.7-2.1-3.1-4.4-4.8-6.5c-1.5-1.8-2.6-3.9-4.5-5.5
				c-1.3-1.1-1.9-2.8-3.1-4.1c-1.6-1.8-3.4-3.5-5-5.2c-1.5-1.6-2.8-3.3-4.3-4.8c-1.2-1.2-2.6-2.3-3.9-3.4c-0.6-0.5-1.2-0.9-1.9-1.5
				c0.6-0.5,1.1-0.9,1.7-1.4c4.4-3.6,8.8-7.2,13.2-10.9c1.8-1.5,2.5-1.5,4.2,0.2c0.3,0.3,0.9,0.2,1.2,0.5c1.6,1.1,3.1,2.2,4.6,3.4
				c2.4,1.8,4.7,3.5,7,5.4c2,1.7,4.3,3.2,5.5,5.7c0.3,0.6,1,1,1.4,1.6c1.5,1.7,3,3.4,4.4,5.1c1.1,1.3,2.1,2.7,3.1,4.1
				c0.4,0.5,0.5,1.1,0.8,1.7c0.1,0.2,0.1,0.5,0.3,0.8c0.7,1.5,1.5,2.9,2.2,4.4c0.5,0.9,0.8,1.8,1.4,2.7s0.5,1.5-0.4,2.1L442.8,184.1
				z M428.1,226.2c0.5,2.1,1,4.2,1.6,6.3c0.5,1.6,1,3.1,1.6,4.7c0.1,0.4,0.4,0.9,0.4,1.3c0.3,1.8,0.6,3.6,0.8,5.5
				c0.1,1.1,0.1,2.2,0.1,3.2c0,0.4-0.4,0.9-0.7,1.1c-4,2.7-7.9,5.3-11.9,8c-2,1.4-4,2.8-6.1,4.2c-3.3,2.1-6.6,4.2-9.9,6.3
				c-0.3,0.2-0.8,0.1-1.3,0.1c0-0.1-0.1-0.2-0.1-0.4c4.2-2.8,8.3-5.6,12.5-8.4c0-0.1-0.1-0.2-0.1-0.2c-0.4,0.2-0.8,0.4-1.2,0.6
				c-1.9,1.3-3.8,2.6-5.7,3.8c-1.8,1.1-3.7,2.2-5.6,3.1c-0.2,0.1-0.9-0.2-1.1-0.5c-0.8-1.1-1.4-2.2-2.2-3.3
				c-0.7-0.9-1.6-1.8-2.4-2.7c-0.3-0.3-0.7-0.7-0.9-1.1c-0.7-1.4-1.8-2.3-2.9-3.3c-0.4-0.4-0.7-0.8-1-1.2c-2.5-3.5-4.6-7.2-6.6-11
				c-1.5-2.9-2.9-5.8-4.3-8.7c6.8-4.5,13.4-8.9,20.1-13.3c-0.1-0.1-0.1-0.2-0.2-0.3c-1.7,1.1-3.3,2.1-5,3.2
				c-2.5,1.6-5.1,3.2-7.7,4.7c-2.3,1.4-4.6,2.8-7,4.1c-0.2,0.1-0.5,0-0.8,0c0.1-0.3,0.2-0.7,0.4-0.8c3.4-2.2,7-4.3,10.4-6.6
				c4.4-2.9,8.7-6,13.1-9c3-2.1,6-4.2,9-6.3c2.1-1.5,4.1-3,6.3-4.6c1.3,1.4,2.3,2.9,2.7,4.6c0.3,1.6,1.1,3,1.9,4.4
				c0.2,0.3,0.4,0.7,0.4,1c0.1,1.3,0.3,2.6,1.4,3.6c0.1,0.1,0.2,0.3,0.2,0.5C426,221.7,427.6,223.8,428.1,226.2z M396.1,271.9
				c-2,1.2-4,2.4-6,3.6c-4.3,2.5-8.7,5.1-13,7.6c-1.1,0.7-2.3,1.3-3.5,1.9c-0.5,0.2-1.1,0.3-1.6,0.4c0-0.1-0.1-0.3-0.1-0.4
				c1.8-1,3.7-2.1,5.5-3.1c5.9-3.4,11.7-6.9,17.5-10.3C395.3,271.2,395.8,270.8,396.1,271.9z M360,126.5c4.9-0.4,9.9-1.5,15.1,0
				c-1.2,0.9-2,2.1-3.7,1.7c-2-0.4-4-0.7-6.1-0.9c-1-0.1-2.1,0-3.1,0c-0.7,0-1.5-0.2-2.2-0.3C360,126.9,360,126.7,360,126.5z
				 M357.9,138.6c-0.8,0.6-1.6,0.7-2.5,0.3c-1.4-0.6-2.9-0.9-4.3-1.3c-0.7-0.2-1.4-0.5-2-0.7c0.5-0.4,0.9-0.7,1.2-1
				c0.2-0.2,0.4-0.5,0.6-0.7c0.2,0.3,0.4,0.6,0.7,0.9c3.6-0.2,7.4-0.4,11.1-0.6c0,0.2,0.1,0.3,0.1,0.5c-0.7,0.3-1.4,0.6-2.1,0.9
				C359.8,137.3,358.8,137.9,357.9,138.6z M368.4,144.2c-2.2-1.7-4.8-2.2-7.4-3.6c1.7-1.1,3.3-2.1,4.7-3.1c0.8-0.6,1.5-1.3,2.6-1.2
				c0.6,0.1,1.2,0,1.7,0.2c2.7,0.7,5.4,1.4,8.1,2.1c2.8,0.8,5.6,1.6,8.5,2.4c0.7,0.2,1.5,0.4,2.2,0.8c2.3,1.3,4.6,0.9,7,0.4
				c0.8-0.1,1.6,0.1,2.4,0.3c0.4,0.1,0.8,0.3,1.2,0.5c0.8,0.5,1.7,1,2.5,1.4c1,0.5,2.1,1,3.3,1.5c-0.9,0.7-1.7,1.5-2.7,2.3
				c-3.7,2.9-7.4,5.8-11.1,8.7c-1.8,1.4-1.8,1.4-3.6-0.1c-1.8-1.4-3.5-2.8-5.3-4.2c-0.8-0.6-1.7-1-2.5-1.5c-1.6-1-3.2-2-4.8-3
				C372.8,146.9,370.4,145.8,368.4,144.2z M389,164.3c-0.9,1.2-1.2,1.2-2.3-0.4C387.7,163.1,388.3,164.1,389,164.3z M379.8,157.7
				C379.8,157.7,379.9,157.6,379.8,157.7c1.4,0.7,2.7,1.4,4,2.2c0.6,0.4,0.8,1.2,1.3,1.8c-0.1,0.1-0.3,0.2-0.4,0.3
				C383,160.6,381.4,159.1,379.8,157.7z M366.8,178.7c-0.9,0.6-1.9,1.2-2.8,1.8c-0.1-0.1-0.1-0.1-0.2-0.2
				C364.3,179,365.8,179.3,366.8,178.7z M355.9,194.8c0.1-0.1,0.2-0.1,0.3-0.2c1.6,3.1,4,5.9,5,9.4
				C359.4,201,357.6,197.9,355.9,194.8z M371.7,219.8c-0.4-0.5-0.6-0.8-0.8-1.1c-0.9-1.7-1.8-3.5-2.7-5.1c-0.8-1.4-1.8-2.6-2.6-3.9
				c-1.7-2.8-3.3-5.7-5-8.6c-1.4-2.4-2.8-4.7-4.2-7.1c-0.7-1.1-1.4-2.2-2-3.4c-0.4-0.7-0.1-1.6,0.7-2.1c1.7-0.9,3.4-1.9,4.7-3.4
				c1.6,0,2.4-1.4,3.7-2c1.1-0.6,2.1-1.3,3-2c1.1-0.9,2.4-1.6,3.6-2.4c1.1-0.7,2.3-1.4,3.2-2.4c0.8-0.9,1.9-1.3,2.8-1.9
				c1.4-1,2.9-2,4.3-3.1c0.1-0.1,0.1-0.2,0.2-0.4c-1.7,1-3.3,1.9-5,2.9c-0.3,0.2-0.6,0.3-1,0.3c0.3-0.2,0.6-0.5,0.9-0.7l-0.2-0.3
				c-1.2,0.8-2.5,1.6-3.7,2.4c-0.1-0.1-0.1-0.2-0.2-0.3c1.5-1.1,3-2.2,4.5-3.3c1.8-1.4,3.6-2.7,5.5-4.1c-1.9,1.2-3.8,2.4-5.7,3.6
				c0-0.1-0.1-0.1-0.1-0.2c1.3-1,2.6-2,3.9-3s2.7-2,4.1-3c0.2-0.1,0.4-0.2,0.6-0.2c0,0.2,0.1,0.5,0.1,0.7c0.5,0.2,1.2,0.4,1.5,0.8
				c0.5,0.8,1.2,1,1.9,1.3c0.7,0.4,1.1,0.8,1.5,1.5s0.9,1.3,1.4,1.8c1.2,1.4,2.3,2.9,3.7,4.1c1.5,1.4,2.6,3,3.9,4.5
				c1.2,1.5,2.7,2.8,3.9,4.3c0.6,0.7,0.9,1.7,1.4,2.5c0.2,0.3,0.5,0.5,0.8,0.8c0.6-0.7,0.6-1.3,0.1-1.9c-2.1-3.1-4-6.3-6.2-9.2
				c-1.9-2.5-4.2-4.7-6.4-7c-1.1-1.2-2.2-2.4-3.3-3.6c0.2-0.1,0.4-0.2,0.6-0.4c0.8-0.8,1.1-0.3,1.5,0.4c0.4,0.6,1,1.2,1.5,1.8
				c0.3,0.3,0.7,0.6,0.9,1c0.4,1.2,1.4,1.9,2.4,2.4c0.5,0.3,1,0.6,0.7,1.3c-0.1,0.2,0.1,0.7,0.3,0.9c1.2,1.1,2.4,2.1,3.6,3.2
				c0.2,0.1,0.3,0.4,0.3,0.6c0,1.6,1,2.5,2.2,3.3c1.7,1.2,2.9,2.9,3.9,4.7c0.2,0.3,0.4,0.6,0.6,0.9c0.5,0.8,1,1.6,1.6,2.3
				c0.9,1,2,2,3,3c0.2,0.2,0.5,0.5,0.7,0.8c0.4,0.5,0.6,1.2,1.1,1.6c1,0.7,1.5,1.6,2,2.7c0.4,1,1,2,1.5,3c0.2,0.3,0.1,0.8,0.2,1.2
				c0.2,0.8,0.5,1.6,0.8,2.5c-0.9,0.6-1.9,1.5-3.1,2.1c-4.7,2.5-8.9,5.7-13.3,8.7c-2.6,1.8-5.4,3.2-8.1,4.9c-4.7,2.8-9.3,5.6-14,8.4
				c-1.3,0.8-1.5,0.7-2.4-0.6c-1.1-1.5-2.1-3.1-3.2-4.6c-0.6-0.8-1.3-1.5-2-2.2C371.6,219.2,371.6,219.3,371.7,219.8z M369.8,238.2
				c1.8-1.1,3.6-2.2,5.4-3.3c0.2-0.1,0.6,0,0.9,0c-0.1,0.2-0.2,0.5-0.3,0.6c-2.1,1.1-4.2,2.1-6.3,3.1
				C369.6,238.5,369.6,238.3,369.8,238.2z M369.2,238.8c-1.2,0.7-2.4,1.4-3.6,2.1c-0.1-0.1-0.1-0.2-0.2-0.3
				C366.7,239.9,368,239.3,369.2,238.8z M376.8,236.7c6,11,12,22.1,18.1,33.4c-0.8,0.5-1.8,1.2-2.8,1.7c-3.8,2.2-7.5,4.5-11.4,6.5
				c-7,3.6-14,6.9-21.1,10.3c-1.1,0.5-2.4,0.7-3.7,1.1c-0.2,0-0.4-0.1-0.6-0.1c-2.7-1.4-5.4-2.9-7.3-5.4c-2.2-2.9-4.4-5.9-6.5-8.9
				c-1.8-2.6-3.3-5.2-4.9-7.9c-0.2-0.3-0.4-0.7-0.4-1.1c1.7,2.3,3.4,4.5,5.1,6.8l0.2-0.2c-0.9-1.2-1.7-2.5-2.6-3.7l0.1-0.1
				c2.3,2.6,4.7,5.2,7,7.9l0.2-0.2c-3.7-5.7-7.4-11.5-11.1-17.2C349.2,251.9,363,244.2,376.8,236.7z M327.6,296.9
				c-0.7-0.6-1.4-1.2-2-1.9c0.1-0.1,0.1-0.2,0.2-0.2c0.7,0.6,1.4,1.2,2,1.9C327.7,296.7,327.6,296.8,327.6,296.9z M322.3,309.7
				c3.2-1.5,6.4-2.9,9.5-4.3C331,306.7,323.3,310.2,322.3,309.7z M335.6,299.7c-0.6,0.3-1.1,0.3-1.7-0.1c-4.6-3.1-8.6-7-12.5-10.9
				c-1.9-1.9-3.6-3.9-5.6-5.7c2.9,4.1,5.8,8.1,9.4,11.6c-0.4-0.2-0.9-0.4-1.2-0.7c-1.5-1.3-3.1-2.7-4.4-4.1c-2.3-2.4-4.5-5-6.8-7.5
				c-0.3-0.4-0.9-0.5-1.4-0.8c-0.2-0.2-0.4-0.4-0.5-0.7c-1.5-2.3-2.9-4.6-4.4-6.9c-0.2-0.3-0.3-0.7-0.4-0.9
				c7.7-3.5,15.3-6.9,22.9-10.4c6,10.7,12.8,20.7,21.3,29.7c-0.5,0.2-1.1,0.5-1.6,0.8C344.3,295.3,340,297.5,335.6,299.7z
				 M339.1,302.6c-0.3,0.2-0.7,0.1-1.1,0.1c0-0.1,0-0.2,0-0.4c4.7-2.5,9.4-4.9,14.2-7.4c0,0.1,0.1,0.2,0.1,0.2
				c-1.6,0.9-3.2,1.8-4.8,2.7C344.7,299.4,341.9,301,339.1,302.6z M379,315.8c-0.6,0.3-1.3,0.4-1.9,0.8c-1.4,0.9-2.9,1-4.6,0.9
				c-3.1-0.2-6.3-0.2-9.3-1.2c-2.3-0.7-4.6-1.5-6.8-2.6c-4.2-2.1-8.3-4.5-12.4-6.8c-0.1,0-0.1-0.1-0.3-0.3c2.2-1.1,4.3-2.1,6.4-3.2
				c2.5-1.3,5.1-2.5,7.6-3.8c0.5-0.3,0.9-0.3,1.3,0.1c1.8,1.5,3.4,3.1,5.4,4.3c4.8,3,9.8,5.8,14.7,8.6c1,0.6,2.1,0.9,3.1,1.3
				c0,0.1,0,0.2,0.1,0.3C381.2,314.8,380.1,315.3,379,315.8z M376.8,303.6c-2.1-1.4-4.2-2.8-6.2-4.3c-0.9-0.6-1.6-1.4-2.4-2.2
				c-0.7-0.6-1.3-1.2-2.1-2c11.1-5.5,21.4-12.4,31.5-19.3c1.8,3.9,3.5,7.8,5.4,11.5s4.1,7.3,6.3,11.1c-3.3,1.9-6.6,3.8-9.9,5.7
				c-2.7,1.5-5.4,3-8,4.5c-0.8,0.4-1.5,0.7-2.4,0.3c-1-0.5-2-0.8-3-1.1C382.7,307,379.7,305.4,376.8,303.6z M387.9,318.6
				c2.1-1.9,3.6-1.9,6.9,0.1C392.6,319,390.3,319.1,387.9,318.6z M414.3,314c-1.6,0.2-3.2,0.5-4.8,0.4c-2-0.1-3.9-0.4-5.9-0.7
				c-1.2-0.2-2.3-0.5-3.4-0.8c-0.4-0.1-0.8-0.3-1.4-0.6c4.7-2.8,9.1-5.4,13.3-7.9c1.1,2.6,2.3,5.1,3.4,7.7
				C415.9,313.3,415.7,313.8,414.3,314z M429.3,293.3c-0.2,1.2-0.5,2.5-0.7,3.7c-0.1,0.3-0.1,0.5-0.2,0.8c-1.1,1.7-1.6,3.7-2,5.7
				c-0.1,0.4-0.4,0.8-0.6,1.3c-0.2,0.7-0.4,1.4-0.6,2.1c-0.1,0.3-0.3,0.5-0.4,0.8c-0.2-0.2-0.6-0.3-0.7-0.5
				c-0.3-0.6-0.3-1.3-0.7-1.8c-1.2-1.8-1.7-3.9-2.3-5.9c-0.1-0.3,0.1-0.8,0.3-1C424,296.6,426.6,295,429.3,293.3
				C429.3,293.3,429.4,293.3,429.3,293.3z M434.6,275.9c-0.6,2.1-1.3,4.3-1.9,6.4c-0.1,0.5-0.3,1-0.3,1.5c0,2-1.2,3.1-2.7,3.9
				c-3.3,1.7-6.7,3.3-10.1,5c-0.3,0.1-0.8,0.1-1-0.1c-1.8-1.5-3.8-3-5.4-4.7c-1.4-1.6-2.5-3.6-3.5-5.4c-0.7-1.3-1.3-2.7-1.9-4.2
				c-0.3-0.7-0.3-1.6-0.5-2.4c-0.1-0.4-0.3-0.9-0.5-1.3c-0.5-1.1-1-2.1-1.4-3.2c-0.1-0.2,0.2-0.6,0.4-0.7c2.7-1.9,5.4-3.7,8.1-5.6
				c5.5-4,11-8,16.5-12.1c0.9-0.7,1.7-1.4,2.9-2.3c0.3,2.8,0.5,5.3,0.7,7.8c0.1,1.1,0.3,2.2,0.4,3.3c0.1,0.6,0.2,1.3,0,1.9
				c-0.4,2-0.3,4-0.1,6c0.1,1.4,0,2.9,0,4.3c0,0.4,0.1,0.8,0.1,1.2C434.6,275.3,434.7,275.6,434.6,275.9z M435.2,223.8
				c-1-3-1.8-6.1-3.1-9c-1.7-4-3.8-7.8-5.8-11.7c-0.3-0.7-0.9-1.2-1.5-1.9c6.1-4.3,12-8.7,17.8-13.3c-0.1-0.1-0.2-0.2-0.2-0.3
				c-2,1.4-4,2.8-5.9,4.1c-0.1-0.1-0.1-0.2-0.2-0.2c2.4-2.2,4.7-4.4,7.1-6.5c0.7,1.4,1.4,2.7,2.1,4.1c0.6,1,1.2,2,1.8,3
				c0.3,0.6,0.7,1.1,1,1.7c0.4,0.8,0.9,1.6,1.3,2.4c0.1,0.2,0.3,0.4,0.4,0.7c0.6,1.8,1.1,3.6,1.6,5.4c0.5,1.6,1,3.2,1.4,4.8
				c0.4,1.7,0.7,3.4,0.9,5c0.1,0.5-0.2,1-0.2,1.5c0.1,0.9,0.2,1.8,0.3,2.7c0.4,2.1,0,4.2,0.7,6.3c0.5,1.5,0.3,3.3,0.5,5
				c0,0.3,0,0.6,0.1,0.8c0.8,1,0.1,1.5-0.6,2.1c-1.4,1.3-2.6,2.8-4.2,3.7c-2.9,1.7-5.1,4.2-7.9,6.1c-0.8,0.5-1.6,1.1-2.5,1.7
				c-0.4-1.9-0.6-3.7-1.1-5.4C437.9,232.3,436.5,228.1,435.2,223.8z M444.1,285.7c-0.6,1.2-1.2,2.4-1.9,3.5
				c-0.6,0.9-1.3,1.7-1.9,2.6c-0.4,0.6-0.8,1.3-1.3,1.9c-0.2,0.3-0.5,0.6-0.7,0.9c-0.1,0-0.2-0.1-0.2-0.1c0-0.2,0-0.3,0-0.5
				c0.7-2.5,1.3-5,2-7.5c0.1-0.3,0.3-0.5,0.6-0.7c1.2-0.9,2.5-1.8,3.7-2.6c0.1,0,0.3,0.1,0.4,0.1
				C444.6,284.1,444.4,284.9,444.1,285.7z M455.9,236.3c-0.6,1.5-0.6,2.9-0.5,4.5c0,0.7-0.2,1.3-0.2,2c-0.1,1.8-0.1,3.6-0.2,5.4
				c-0.1,1.1-0.5,2.2-0.7,3.3c-0.2,1.1-0.4,2.3-0.5,3.5c0,0.2,0,0.5-0.2,0.7c-1.7,2.1-1.9,4.6-2.1,7.1c-0.1,1.8-0.8,3.5-1.4,5.2
				c-0.4,1.2-0.5,2.6-1,3.8c-0.6,1.2-0.5,2.5-0.8,3.8c-0.1,0.4-0.5,0.9-0.9,1.2c-1.7,1.3-3.3,2.5-5.2,3.8c0-0.5-0.1-0.8,0-1
				c0.7-3.3,0.4-6.7,0.5-10c0-3.5,0.1-7.1-0.2-10.6c-0.3-4.2-1-8.4-1.6-12.6c-0.2-1.2,0.1-1.9,1.1-2.6c1-0.6,1.7-1.7,2.6-2.5
				c0.5-0.5,1.2-0.9,1.8-1.3c0.7-0.5,1.6-0.9,1.9-1.9c0.1-0.3,0.6-0.4,0.9-0.7c1-0.9,2-1.8,3.1-2.7c0.3-0.3,0.7-0.4,1-0.7
				c1.1-0.9,2.1-1.7,3.2-2.6c0.1,0,0.2,0,0.3,0C456.3,233,456.4,234.8,455.9,236.3z M472.6,227c-0.1,0.5-0.3,0.9-0.4,1.4
				c-0.1,0.6-0.2,1.1-0.2,1.7c0,0.4,0,0.8-0.1,1.2c0,0.2,0.1,0.4,0.1,0.6c-0.4,1.7-0.7,3.5-1.1,5.2c-0.1,0-0.2,0-0.3,0
				c-0.1-0.6-0.3-1.3-0.2-1.9c0.7-4.5,0.2-8.9-0.3-13.3c-0.1-0.8-0.6-1.5-1-2.3c0,1,0,1.9,0,2.9c0.1,4.8,0.3,9.6-0.8,14.3
				c-0.5,2.2-0.7,4.5-1.1,6.8c-0.1,0.6-0.5,1.1-0.6,1.7c-0.4,1.7-0.7,3.4-1.1,5.1c-0.6,2.3-1.4,4.7-2.2,6.9
				c-0.9,2.6-1.8,5.1-2.8,7.6c-0.3,0.8-0.6,1.5-1,2.3c-0.1,0.2-0.4,0.3-0.7,0.5c-0.1-0.3-0.2-0.6-0.2-0.8c0.3-1.2,0.6-2.5,1-3.7
				c0.7-1.8,0.9-3.6,1-5.4c0.1-1.9,0.6-3.8,0.9-5.7c0.1-0.6,0.2-1.3,0.2-1.9c0.1-1.2,0.2-2.3,0.3-3.5c0.1-1.7,0.1-3.5,0.2-5.2
				c0-0.4,0-0.7,0.1-1.1c0.6-2.1,0.8-4.2,0.5-6.4c-0.2-2-0.2-4.1-0.3-6.2c0-0.1,0-0.2,0-0.3c-0.8-2,0.6-3.1,1.8-4.2
				c2.4-2.3,4.7-4.6,7-6.9c-0.1-0.1-0.1-0.1-0.2-0.2c-1.3,1.1-2.3,2.5-3.8,3.2c-2,1-3.3,2.9-5.2,4c-0.1-0.1-0.1-0.1-0.1-0.1
				c0-6.9-1.4-13.7-3.2-20.3c-0.8-2.9-2-5.6-3.1-8.4c-0.8-2.2-1.6-4.5-2.5-6.6c-0.7-1.7-1.7-3.2-2.6-4.8c-0.5-0.9-0.6-1.5,0.4-2
				c0.1,0,0.1-0.1,0.2-0.2c0,0,0-0.1,0.1-0.3c-0.6,0.4-0.9,0.7-1.4,1.1c-0.3-0.6-0.7-1.1-1.1-1.7c0.9-0.7,1.7-1.4,2.7-2.1
				c-1.5-0.3-1.8,1.3-3.2,1.5c0.5-0.5,1-1,1.4-1.4l-0.1-0.1c-0.5,0.4-1.1,0.7-1.7,1.1c-1.8-2.4-3.4-4.9-5.2-7.2
				c-2.3-2.9-4.7-5.6-7-8.4c-1.9-2.3-3.8-4.5-5.8-6.8c-0.5-0.6-1.1-1.2-1.7-1.7c-1.8-1.5-3.5-3.1-5.4-4.6c-1.3-1-2.6-1.8-3.9-2.8
				c-0.9-0.7-1.7-1.5-2.7-2.1c-1-0.7-2.2-1.2-3.2-1.7c-0.5-0.3-1.1-0.5-1.9-0.9c1.6-1.4,3-2.6,4.4-3.8c0.1-0.1,0.6,0,0.8,0.1
				c2.4,1.4,4.8,2.8,7.1,4.3c3.5,2.3,7,4.6,10.4,7.1c2.2,1.6,4.2,3.6,6.3,5.4c1,0.9,2,1.7,2.9,2.6c0.1,0.1,0.3,0.2,0.4,0.3
				c2,2.4,4,4.7,5.9,7.2c1.7,2.2,3.2,4.5,4.7,6.8c0.6,0.9,1.2,1.9,1.7,2.8c0.2,0.3,0.1,0.7,0.1,1c0.3,0.2,0.7,0.3,0.9,0.5
				c0.6,0.8,1,1.7,1.5,2.5c0.7,1.1,1.3,2.2,1.9,3.3c1.2,2,2.5,4,3.9,6c-0.2-0.5-0.6-1-0.7-1.5c-0.2-1.5-1-2.8-1.6-4.2
				c-0.2-0.4-0.1-1-0.2-1.7c-1-2.1-2.1-4.5-3.3-6.9c0.2-0.2,0.4-0.3,0.7-0.6c0.4,0.8,0.8,1.6,1.2,2.3c0.6,1.2,1.3,2.4,1.9,3.6
				c0.7,1.3,1.5,2.6,2.2,4c0.7,1.3,1.1,2.7,1.8,3.9c0.4,0.8,1.1,1.5,1.7,2.4c-0.4-0.2-0.8-0.4-1.4-0.7c0.5,1.4,1.1,2.6,1.2,3.8
				c0.1,1.7,1.2,2.8,1.8,4.2c0.5,1.2,0.8,2.4,0.9,3.7c0.3,3,0.7,6,1.6,8.9c0.5,1.4,0.1,3.1,0.2,4.7c0.1,1.7,0.2,3.4,0.2,5.1
				c0,0.4-0.2,0.8-0.1,1.2c0.1,1.2,0.5,2.3,0.5,3.5C473.1,225.4,472.8,226.2,472.6,227z"/>
			<path d="M384.3,165.7c-0.9,0.7-1.9,1.4-2.8,2.1c-1.9,1.2-3.8,2.4-5.7,3.6c0-0.1-0.1-0.1-0.1-0.2c1.3-1,2.6-2,3.9-3s2.7-2,4.1-3
				c0.2-0.1,0.4-0.2,0.6-0.2C384.2,165.2,384.3,165.4,384.3,165.7z"/>
			<path d="M441.4,185.8c0.1,0,0.2-0.1,0.3-0.1c-0.1,0.2-0.1,0.6-0.3,0.7c-2,1.7-4.1,3.3-6.1,5c-0.2,0.1-0.4,0.2-0.7,0.1
				c2-1.6,4-3.2,6-4.8C440.8,186.4,441.1,186.1,441.4,185.8z"/>
			<path d="M325.8,294.8c0.7,0.6,1.4,1.2,2,1.9c-0.1,0.1-0.1,0.2-0.2,0.2c-0.7-0.6-1.4-1.2-2-1.9
				C325.6,294.9,325.7,294.9,325.8,294.8z"/>
			<path d="M405.9,187.4c0.6,1.2,1.3,2.3,1.9,3.5C406.3,191.1,405.3,189.5,405.9,187.4z"/>
			<path d="M380.6,170.9c0.8-0.6,1.6-1.3,2.5-1.9c0.1,0.1,0.1,0.2,0.2,0.3C382.4,169.8,381.5,170.3,380.6,170.9L380.6,170.9z"/>
			<path d="M365.4,216.1c-0.7-0.2-1.6-1.5-1.9-3C364.1,214.1,364.7,215.1,365.4,216.1z"/>
		</g>
		<g>
			<path d="M347.3,326c2.3-1,4.4-2.5,6.4-3.9c-1.8-0.4-3.6-0.8-5.5-1.2c-0.1,0-0.3-0.1-0.4-0.1c-2.8-0.7-5.7-1.4-8.5-2.2
				c-0.9-0.2-1.6-0.7-2.5-1.1c-1.7-0.7-3.3-1.3-5-1.9c-0.4-0.2-0.7-0.6-1.1-0.8c-0.4-0.2-0.9-0.5-1.4-0.7c-2.5-1-4.9-2.3-7.2-3.7
				c-1.2-0.7-2.2-1.6-3.5-2.2c-1-0.5-2-0.9-2.8-1.6c-2.7-1.2-4.6-3.4-6.7-5.3c-2.1-2-4.1-4.2-6.2-6.3c-0.1-0.1-0.2-0.2-0.3-0.3
				c0.2,1.8,0.5,3.5,0.9,5.2c0.4,0.4,0.8,0.8,1.1,1.2c1.8,1.8,3.9,3.4,5.9,5.1c1,0.9,2.1,1.7,3.1,2.5c0,0.1-0.1,0.1-0.1,0.1
				c0.3,0.3,0.5,0.5,0.7,0.9c1.1,0.7,2.2,1.4,3.3,2.2c0.4,0.3,0.9,0.7,1.3,1.1c1.8,0.8,3.4,1.8,5.1,2.8c2.2,1.2,4.5,2.4,6.7,3.5
				c2.9,1.4,5.8,2.8,8.7,4.1c1.2,0.6,2.5,1.1,3.8,1.5C344.6,325.2,345.9,325.6,347.3,326z"/>
			<path d="M479.5,221.5c-0.2-1-0.3-2-0.3-3c-0.1-2.6,0-5.1-0.1-7.7c-0.1-1.6-0.6-3.3-0.6-4.9c-0.1-2.9-0.5-5.7-1.6-8.4
				c-0.8-2-0.9-4.3-1.4-6.4c-0.2-0.8-0.5-1.6-0.8-2.3c-0.9-1.9-2-3.7-2.9-5.6c-0.6-1.3-1-2.8-1.6-4.1c-1.7-3.4-3.5-6.9-5.3-10.5
				h-0.3c-0.2-0.4-0.4-0.8-0.6-1.1c-1.4-2.2-2.7-4.4-4.2-6.4c-1.4-2-2.9-4-4.6-5.7c-2.6-2.8-5.5-5.4-8.2-8.1
				c-1.4-1.4-2.8-2.8-4.3-4.1c-1.4-1.2-2.9-2.3-4.4-3.4c-2.9-2.1-5.9-4.1-8.8-6.1c-1.5-1-3-2-4.6-3l0,0c-0.7-0.2-1.3-0.6-1.9-0.9
				c-0.2,0-0.5,0-0.7-0.2c-1.3-0.7-2.6-1.3-3.8-2c-4.5-2.6-9.5-4-14.4-5.6c-3.2-1-6.5-1.8-9.7-2.7c-0.8-0.2-1.7-0.4-2.8-0.6
				c0.1-0.1,0.2-0.2,0.3-0.2c-0.6,0-1.3-0.2-2-0.2c-1.3-0.1-2.6,0.1-3.9,0.2c-0.2,0-0.4,0-0.6-0.1c-2.9-0.2-5.9-0.4-8.8-0.6
				c-0.3,0-0.6,0-0.9,0c-2.6,0.1-5.2,0.3-7.8,0.5c-2.2,0.2-4.4,0.3-6.6,0.7c-3.5,0.6-7.1,1.2-10.6,1.9c-3.7,0.8-7.4,1.1-10.8,2.8
				c-2.5,1.2-5,2.2-7.6,3.4c-1.5,0.7-3.1,1.4-4.6,2.1c0,0.4-0.1,0.9-0.3,1.4c-0.8,2.3-1.4,4.7-1.9,7.3c0.1,3.1-0.1,6.2-0.3,9.2
				c0.4,0.7,0.9,1.5,1.3,2.2c1.2,1.9,2.5,3.8,3.9,5.9c0.1,0.1,0.1,0.1,0.2,0.2c0.6,1.1,1.5,2.1,2.3,3.1c0.1,0,0.1,0,0.1-0.1
				c0.6,0.9,1.2,1.8,1.8,2.7c2.2,3.3,4.5,6.7,6.7,10c1,1.4,1.9,2.9,2.9,4.3c1.4,2,2.8,4,4.4,5.9c-1-2.1-2.1-4.1-3-5.9
				c0.1-0.6,0.3-1,0.2-1.2c-0.7-1.3-1.6-2.6-2.3-4c-1-1.8-2-3.6-3.1-5.4c-0.6-1.1-1.2-2.3-1.9-3.3c-1-1.3-1.5-2.8-1.7-4.3
				c-0.4-0.9-0.7-1.8-1.1-2.7c-0.3-0.8-0.7-1.4-0.9-2.3c-3.5-3.5-5-8.1-7.7-12c3.3-1.2,17.8,1.4,21.3,3.7c0.8,0.2,1.5,0.6,2.3,0.9
				c0.9,0.4,1.9,0.7,2.7,1.2c1,0.4,2,0.7,3,1.2c0.6,0.3,1.2,0.6,1.9,1c0.5,0.3,1,0.6,1.5,0.8c0.8,0.4,1.5,0.8,2.3,1.2
				s1.6,0.7,2.4,1.1c1.2,0.7,2.3,1.4,3.5,2.1c0.4,0.2,0.8,0.5,1.3,0.6c1.3,0.2,2.2,1.1,3.2,1.9c0.6,0.5,1.3,0.8,1.9,1.2
				c0.1,0.1,0.3,0.1,0.4,0.1c1.8,1.7,4.4,2.2,6,4.3c0.3,0.4,0.8,0.8,1.4,1.2c0.1,0,0.1,0.1,0.2,0.1c0.1,0.1,0.2,0.1,0.2,0.2l0.1,0.1
				l0,0c0.4,0.3,0.8,0.7,1.1,1c0.9,0.2,1.6,1,1.6,1.8c0.2,0.3,0.4,0.5,0.6,0.8c0.4,0.4,1,0.6,1.5,0.9c0.7,0.4,1.1,0.8,1.5,1.5
				s0.9,1.3,1.4,1.8c1.2,1.4,2.3,2.9,3.7,4.1c1.5,1.4,2.6,3,3.9,4.5c1.2,1.5,2.7,2.8,3.9,4.3c0.6,0.7,0.9,1.7,1.4,2.5
				c0.2,0.3,0.5,0.5,0.8,0.8c0.6-0.7,0.6-1.3,0.1-1.9c-2.1-3.1-4-6.3-6.2-9.2c-1.9-2.5-4.2-4.7-6.4-7c-1-1.1-2-2.1-3-3.2
				c-0.3-0.1-0.7-0.4-0.8-0.7l0,0c-0.3-0.1-0.6-0.4-1.1-1.1c-0.3-0.2-0.5-0.4-0.8-0.6c-0.5-0.4-1.1-0.8-1.4-1.4
				c0-0.1-0.1-0.1-0.1-0.2c-1.6-1.4-3.1-2.8-4.7-4.2l0.1-0.1c1.3,0.7,2.6,1.4,3.9,2.3c0.5,0.3,0.8,0.9,1.1,1.5c0.1,0,0.3,0,0.4,0.2
				c0.4,0.6,0.9,1,1.4,1.4c0.3,0.2,0.6,0.5,0.8,0.7c0.5,0,0.9,0.4,1.3,0.6c0.4,0.1,0.7,0.3,0.9,0.6c0.3,0.1,0.5,0.4,0.7,0.8
				c0.4,0.6,1,1.2,1.5,1.8c0.3,0.3,0.7,0.6,0.9,1c0.4,1.2,1.4,1.9,2.4,2.4c0.5,0.3,1,0.6,0.7,1.3c-0.1,0.2,0.1,0.7,0.3,0.9
				c1.2,1.1,2.4,2.1,3.6,3.2c0.2,0.1,0.3,0.4,0.3,0.6c0,1.6,1,2.5,2.2,3.3c1.7,1.2,2.9,2.9,3.9,4.7c0.2,0.3,0.4,0.6,0.6,0.9
				c0.5,0.8,1,1.6,1.6,2.3c0.9,1,2,2,3,3c0.2,0.2,0.5,0.5,0.7,0.8c0.4,0.5,0.6,1.2,1.1,1.6c1,0.7,1.5,1.6,2,2.7c0.4,1,1,2,1.5,3
				c0.2,0.3,0.1,0.8,0.2,1.2c0.2,0.8,0.5,1.6,0.8,2.5c0,0-0.1,0-0.1,0.1c0.6,0.9,1.3,1.7,1.9,2.5c0.1,0,0.1-0.1,0.2-0.1
				c1.3,1.4,2.3,2.9,2.7,4.6c0.3,1.6,1.1,3,1.9,4.4c0.2,0.3,0.4,0.7,0.4,1c0.1,1.3,0.3,2.6,1.4,3.6c0.1,0.1,0.2,0.3,0.2,0.5
				c-0.2,2.6,1.4,4.7,1.9,7.1c0.5,2.1,1,4.2,1.6,6.3c0.5,1.6,1,3.1,1.6,4.7c0.1,0.4,0.4,0.9,0.4,1.3c0.3,1.8,0.6,3.6,0.8,5.5
				c0.1,1,0.1,2.1,0.1,3.1c0.3,0.4,0.5,0.9,0.5,1.5c0,0.7,0,1.3,0,2c0.1,0,0.1-0.1,0.1-0.1c0.3,2.8,0.5,5.3,0.7,7.8
				c0.1,1.1,0.3,2.2,0.4,3.3c0.1,0.6,0.2,1.3,0,1.9c-0.4,2-0.3,4-0.1,6c0.1,1.4,0,2.9,0,4.3c0,0.4,0.1,0.8,0.1,1.2
				c0,0.3,0.1,0.6,0.1,0.8c-0.6,2.1-1.3,4.3-1.9,6.4c-0.1,0.5-0.3,1-0.3,1.5c0,1.2-0.5,2.2-1.2,2.9c-0.5,2.3-1.1,4.5-2,6.7l0,0
				c0.1,0,0.2,0,0.1,0c-0.2,1.2-0.5,2.5-0.7,3.7c-0.1,0.3-0.1,0.5-0.2,0.8c-1.1,1.7-1.6,3.7-2,5.7c-0.1,0.4-0.4,0.8-0.6,1.3
				c-0.2,0.7-0.4,1.4-0.6,2.1c-0.1,0.3-0.3,0.5-0.4,0.8c-0.2-0.2-0.6-0.3-0.7-0.5c-0.3-0.6-0.3-1.3-0.7-1.8
				c-0.9-1.3-1.4-2.8-1.8-4.2c-0.6-0.3-1.1-0.8-1.3-1.7c-0.6-2.3-1.2-4.5-1.6-6.8h-0.1c-1.8-1.5-3.8-3-5.4-4.7
				c-1.4-1.6-2.5-3.6-3.5-5.4c-0.7-1.3-1.3-2.7-1.9-4.2c-0.3-0.7-0.3-1.6-0.5-2.4c-0.1-0.4-0.3-0.9-0.5-1.3c-0.5-1.1-1-2.1-1.4-3.2
				c0-0.1,0-0.2,0.1-0.4c-0.2-0.3-0.3-0.6-0.5-0.9c-1-1.5-2.4-2.7-3.3-4.3c-0.1-0.2-0.2-0.3-0.2-0.5l-0.1-0.1
				c-0.8-1.1-1.4-2.2-2.2-3.3c-0.7-0.9-1.6-1.8-2.4-2.7c-0.3-0.3-0.7-0.7-0.9-1.1c-0.7-1.4-1.8-2.3-2.9-3.3c-0.4-0.4-0.7-0.8-1-1.2
				c-2.5-3.5-4.6-7.2-6.6-11c-1.5-2.9-2.9-5.8-4.3-8.7l0,0c-0.5-1.1-1.1-2.2-1.6-3.3s-0.8-2.4-1.7-3.3c-0.1-0.1-0.1-0.1-0.2-0.2
				c-0.3-0.1-0.5-0.4-0.9-1c-1.1-1.5-2.1-3.1-3.2-4.6c-0.6-0.8-1.3-1.5-2-2.2l0.1,0.6c-0.4-0.5-0.6-0.8-0.8-1.1
				c-0.9-1.7-1.8-3.5-2.7-5.1c-0.8-1.4-1.8-2.6-2.6-3.9c-1.7-2.8-3.3-5.7-5-8.6c-1.4-2.4-2.8-4.7-4.2-7.1c-0.7-1.1-1.4-2.2-2-3.4
				l0,0c-0.6-1-1.1-2-1.7-3.1s-1.3-2-1.8-3.1c-0.2,0-0.4,0-0.6-0.2c0,0-0.3,0.1-0.4,0.2c-0.1,0.2-0.3,0.4-0.4,0.6
				c0.1,0.1,0.1,0.2,0.2,0.4c0.6,2.2,2.3,4,3.3,6c1.1,1.6,1.8,3.3,2.7,5c1,1.9,2.3,3.6,3.4,5.5c-0.1-0.1-0.2-0.1-0.4-0.2
				c0.1,0.9,0.2,0.8,1.1,2.4c0.6,1.1,1,2.4,1.6,3.5c1.7,3.1,3.5,6.1,5.2,9.2c0.2,0.4,0.4,0.9,0.4,1.4c-0.4-0.6-0.9-1.1-1.3-1.7
				l-0.2,0.1c2.7,4.4,5.5,8.9,8.2,13.3l-0.1,0.1c0.1,0.1,0.2,0.3,0.2,0.5c0.4,1.5,1.4,2.6,2.1,4c0.1,0.2,0.2,0.4,0.3,0.5h0.1
				c0,0,0,0.1-0.1,0.1c0.2,0.5,0.5,1.1,0.7,1.6h0.1c5.9,10.8,11.8,21.8,17.9,32.9c0.4,0.4,0.7,1,0.8,1.7c0.3-0.1,0.5,0,0.7,0.7
				c-0.2,0.1-0.3,0.2-0.5,0.3c0.4,1.3,1.3,2.5,1.9,3.8c0,0,0.1,0,0.1-0.1c1.8,3.9,3.5,7.8,5.4,11.5c1.8,3.5,3.8,6.8,5.8,10.3
				c0.3,0.1,0.5,0.4,0.6,0.8c0.3,2.1,1.6,4,2.5,5.9l0,0c1.1,2.6,2.3,5.1,3.4,7.7c0.6,1.3,0.3,1.8-1.1,1.9c-1.6,0.2-3.2,0.5-4.8,0.4
				c-2-0.1-3.9-0.4-5.9-0.7c-1.2-0.2-2.3-0.5-3.4-0.8c-0.4-0.1-0.8-0.3-1.4-0.6l0,0c-1-0.3-1.9-0.7-2.8-1.1
				c-1.4-0.6-2.9-1.9-4.5-1.7c-0.4,0-0.7-0.1-0.9-0.4c-0.5,0.1-0.9,0.1-1.5-0.1c-1-0.5-2-0.8-3-1.1c-3.3-0.9-6.4-2.4-9.3-4.2
				c-2.1-1.4-4.2-2.8-6.2-4.3c-0.9-0.6-1.6-1.4-2.4-2.2c-0.7-0.6-1.3-1.2-2.1-2h0.1c-3.5-1.5-7-2.9-9.9-5.5c-0.1,0-0.3,0.1-0.4,0.1
				c-0.2,0-0.4-0.1-0.6-0.1c-2.7-1.4-5.4-2.9-7.3-5.4c-2.2-2.9-4.4-5.9-6.5-8.9c-1.8-2.6-3.3-5.2-4.9-7.9c-0.2-0.3-0.4-0.7-0.4-1.1
				c1.7,2.3,3.4,4.5,5.1,6.8c0.1-0.1,0.2-0.1,0.2-0.2c-0.9-1.2-1.7-2.5-2.6-3.7l0.1-0.1c2.3,2.6,4.7,5.2,7,7.9l0.2-0.2
				c-3.7-5.7-7.4-11.5-11.1-17.2c0,0,0.1,0,0.1-0.1c-0.3-0.4-0.6-0.7-0.8-1.1c-0.4-0.5-0.6-1-0.7-1.6c-0.9-1.4-1.7-2.9-2.2-4.5
				c-1.6-2.4-3.6-4.4-4.7-7.2c-1.7-4.5-3.8-8.8-5.6-13.2c-0.8-2.1-1.4-4.4-2-6.7c-0.8,3.6-1.9,7.1-3.4,10.5c2.5,6.9,5.7,13.5,9.4,20
				h-0.1c0.4,0.5,0.7,1.2,0.8,1.9c0.1,0.6,0.6,1.4,1,2.1c0.8,0.9,1.5,1.8,2.1,2.8h0.1c5.8,10.4,12.5,20.2,20.7,29.1
				c0.3,0.2,0.6,0.5,0.7,0.9c0.7,0.5,1.3,1.1,1.9,1.7c0.7,0.7,1.5,1.4,2.2,2.1c0.1,0.1,0.2,0.1,0.3,0.2c1.1,1,2.2,1.9,3.4,2.7
				c0.2,0,0.5,0.1,0.7,0.3c0.4,0.4,0.9,0.7,1.3,1.1c0.1,0.1,0.3,0.2,0.4,0.3c0.2,0.2,0.4,0.4,0.6,0.5c1,0.9,2,1.7,3.1,2.4
				c4.8,3,9.8,5.8,14.7,8.6c1,0.6,2.1,0.9,3.1,1.3v0.1c1.9,0.9,3.7,2.1,5.7,2.5c0.1,0,0.2,0,0.3,0c0.1-0.1,0.3-0.2,0.5-0.2
				c0.4,0,0.6,0.1,0.8,0.3c0.1,0,0.1,0,0.2,0c0.5,0,0.8,0.2,1,0.6c1.1,0,2.3,0.5,4,1.5c-2.2,0.2-4.5,0.4-6.8-0.1c0,0,0,0-0.1,0
				c-2.7,0-5.3-0.8-8.1-0.7c-2,0.1-4,0.2-5.9-0.4c-0.5,0-1,0-1.5,0c-3.1-0.2-6.3-0.2-9.3-1.2c-2.3-0.7-4.6-1.5-6.8-2.6
				c-4.2-2.1-8.3-4.5-12.4-6.8c-0.1,0-0.1-0.1-0.3-0.3c0,0,0.1,0,0.1-0.1c-0.2-0.1-0.4-0.2-0.5-0.3c-1.6-0.9-3.3-1.9-4.8-3.1
				c-1.5-1.1-3.2-2-4.5-3.3c-0.1-0.1-0.2-0.2-0.2-0.3c-4.6-3.1-8.5-7-12.4-10.8c-1.9-1.9-3.6-3.9-5.6-5.7c2.9,4.1,5.8,8.1,9.4,11.6
				c-0.4-0.2-0.9-0.4-1.2-0.7c-1.5-1.3-3.1-2.7-4.4-4.1c-2.3-2.4-4.5-5-6.8-7.5c-0.3-0.4-0.9-0.5-1.4-0.8c-0.2-0.2-0.4-0.4-0.5-0.7
				c-1.5-2.3-2.9-4.6-4.4-6.9c-0.2-0.3-0.3-0.7-0.4-0.9c0.1,0,0.1-0.1,0.2-0.1l-0.2-0.2c-0.5-0.7-0.8-1.5-0.8-2.3
				c-0.5-0.8-0.9-1.6-1.4-2.4c0.1,2.5,0.1,4.9,0,7.4c6.9,10.4,14.4,20.2,24.5,27.8h-0.1c0.1,0,0.1,0.1,0.2,0.1
				c0.3,0.3,0.6,0.5,0.8,0.8c0.7,0.4,1.4,0.8,2.1,1.2c0.1,0,0.2-0.1,0.2-0.1c0,0.1-0.1,0.1-0.1,0.2c0.3,0.2,0.7,0.4,1,0.6
				c1.9,1.2,3.8,2.2,5.4,3.7c0.2,0.1,0.4,0.3,0.7,0.5c1.2,1.1,2.4,2.1,3.7,2.9c4.3,2.7,8.8,4.9,13.7,6.4c0.4,0.1,0.9,0.1,1.4,0.1
				c2.2-1.1,4.6-1.7,7.4-1.3c2.9,0.4,5.5,1.8,8,3.5c2.3,0.4,4.6,0.7,7,0.5c2-0.2,2.3,3,0.3,3.2c-0.9,0.1-1.8,0.1-2.6,0
				c1.3,1.1,2.5,2.3,3.7,3.3c0.1,0,0.1,0.1,0.1,0.1c2.6-0.2,5.2-0.5,7.8-0.8c1.5-0.2,2.9-0.5,4.4-0.7c2-0.3,4-0.4,5.9-0.8
				c2.9-0.6,5.8-1.3,8.6-2.1c3.3-0.9,6.5-1.9,9.7-2.8c0.6-0.2,1.2-0.5,1.8-0.7c0.9,1.6,1.8,3.2,2.6,4.8c0.5,0.9,1.1,0.9,1.8,0.6
				c3-1.3,4.5-3.7,4.8-6.8c0.1-1.1-0.2-2.2-0.3-3.4c0.8-0.5,1.9-1,2.8-1.6c1.9-1.4,3.8-2.8,5.6-4.3c2-1.6,3.9-3.2,5.7-4.9
				c1.8-1.6,3.5-3.4,5.2-5.1c1.3-1.3,2.5-2.6,3.7-4c1-1.1,1.9-2.4,2.8-3.5c1-1.3,2-2.5,2.9-3.9s1.7-2.9,2.5-4.3
				c1.4-2.2,2.8-4.4,4.2-6.7c0.7-1.2,1.3-2.6,2.1-3.8c1.2-1.7,2.2-3.5,2.9-5.4c0.5-1.6,1.3-3.1,1.9-4.6c0.5-1.2,1.1-2.3,1.8-3.3
				c0.1-0.3,0.2-0.6,0.3-0.9c-0.1,0-0.1,0.1-0.2,0.1c0.3-1.4,0.5-2.5,0.9-3.5c0.6-1.7,1.2-3.4,1.8-5.1c0.3-0.9,0.4-1.7,0.7-2.6
				c0.1-0.5,0.3-1,0.3-1.5c0.1-0.4,0-0.8,0.1-1.2c0.5-2.2,1.1-4.4,1.6-6.7c0.3-1.4,0.5-2.9,0.6-4.4c0.2-1.6,0.1-3.2,0.4-4.7
				C479.5,227.4,480.1,224.5,479.5,221.5z M355.9,194.8c0.1-0.1,0.2-0.1,0.3-0.2c1.6,3.1,4,5.9,5,9.4
				C359.4,201,357.6,197.9,355.9,194.8z M327.6,296.9c-0.7-0.6-1.4-1.2-2-1.9c0.1-0.1,0.1-0.2,0.2-0.2c0.7,0.6,1.4,1.2,2,1.9
				C327.7,296.7,327.6,296.8,327.6,296.9z M455.9,236.3c-0.6,1.5-0.6,2.9-0.5,4.5c0,0.7-0.2,1.3-0.2,2c-0.1,1.8-0.1,3.6-0.2,5.4
				c-0.1,1.1-0.5,2.2-0.7,3.3c-0.2,1.1-0.4,2.3-0.5,3.5c0,0.2,0,0.5-0.2,0.7c-1.7,2.1-1.9,4.6-2.1,7.1c-0.1,1.8-0.8,3.5-1.4,5.2
				c-0.4,1.2-0.5,2.6-1,3.8c-0.5,1.1-0.5,2.1-0.7,3.2c0,0.2,0,0.4,0,0.7c-0.6,2.3-1.7,4.5-2.6,6.7c-0.3,0.7-0.6,1.3-1,2
				c-0.5,1.7-1.2,3.3-2.3,4.8c-0.1,0.2-0.3,0.3-0.5,0.4c-0.5,0.8-1.1,1.5-1.7,2.3c-0.4,0.6-0.8,1.3-1.3,1.9
				c-0.2,0.3-0.5,0.6-0.7,0.9c-0.1,0-0.2-0.1-0.2-0.1c0-0.2,0-0.3,0-0.5c0.5-1.9,1-3.7,1.5-5.6c0-0.2,0-0.4,0-0.6
				c0.6-1.8,1.4-3.6,2.2-5.3c0.1-0.7,0.2-1.4,0.3-2.1c0,0,0,0-0.1,0c0-0.5-0.1-0.8,0-1c0.7-3.3,0.4-6.7,0.5-10
				c0-3.5,0.1-7.1-0.2-10.6c-0.3-4.2-1-8.4-1.6-12.6c-0.1-0.6-0.1-1,0.1-1.4c-0.1-0.5-0.2-0.9-0.3-1.4c-0.4-0.5-0.6-1.2-0.5-1.8
				c-0.3-1.7-0.5-3.4-1-5c-1.2-4.3-2.6-8.5-3.9-12.8c-1-3-1.8-6.1-3.1-9c-1.7-4-3.8-7.8-5.8-11.7c-0.3-0.7-0.9-1.2-1.5-1.9
				c0,0,0.1,0,0.1-0.1c-0.8-0.7-1.4-1.6-1.8-2.7l0,0c-0.4-0.8-0.9-1.5-1.2-2.3c-0.9-2.1-2.3-3.7-3.7-5.4c-1.7-2.1-3.1-4.4-4.8-6.5
				c-1.5-1.8-2.6-3.9-4.5-5.5c-1.3-1.1-1.9-2.8-3.1-4.1c-1.6-1.8-3.4-3.5-5-5.2c-1.5-1.6-2.8-3.3-4.3-4.8c-1.2-1.2-2.6-2.3-3.9-3.4
				c-0.6-0.5-1.2-0.9-1.9-1.5c0.1-0.1,0.1-0.1,0.2-0.2c-0.7-0.4-1.2-1-1.9-1.6l-0.1-0.1c-0.3-0.2-0.7-0.5-1.3-0.9
				c-1.8-1.4-3.5-2.8-5.3-4.2c-0.8-0.6-1.7-1-2.5-1.5c-1.6-1-3.2-2-4.8-3c-2.2-1.3-4.6-2.4-6.7-4c-1.8-1.4-3.9-2-6-2.9
				c-0.9-0.2-1.8-0.5-2.7-0.9c-0.8-0.4-1.7-1.2-2.6-1.1c-0.3,0-0.6-0.1-0.7-0.3c-0.3,0-0.6-0.1-0.9-0.2c-1.4-0.6-2.9-0.9-4.3-1.3
				c-0.7-0.2-1.4-0.5-2-0.7c0.5-0.4,0.9-0.7,1.2-1c0.2-0.2,0.4-0.5,0.6-0.7c0.2,0.3,0.4,0.6,0.7,0.9c3.6-0.2,7.4-0.4,11.1-0.6v0.1
				c0.9,0.1,1.8,0.4,2.7,0.5c1,0.1,2,0.2,3,0.4c0.5,0,1,0,1.5,0.1c2.7,0.7,5.4,1.4,8.1,2.1c2.8,0.8,5.6,1.6,8.5,2.4
				c0.7,0.2,1.5,0.4,2.2,0.8c2.3,1.3,4.6,0.9,7,0.4c0.8-0.1,1.6,0.1,2.4,0.3c0.4,0.1,0.8,0.3,1.2,0.5c0.8,0.5,1.7,1,2.5,1.4
				s1.6,0.8,2.5,1.2c0.8,0.1,1.6,0.3,2.4,0.6h0.1c0.3,0,0.6,0,0.9,0.1c0.7-0.1,1.3,0.3,2.3,1.2c0.3,0.3,0.9,0.2,1.2,0.5
				c1.6,1.1,3.1,2.2,4.6,3.4c2.4,1.8,4.7,3.5,7,5.4c2,1.7,4.3,3.2,5.5,5.7c0.3,0.6,1,1,1.4,1.6c1.5,1.7,3,3.4,4.4,5.1
				c1.1,1.3,2.1,2.7,3.1,4.1c0.4,0.5,0.5,1.1,0.8,1.7c0.1,0.2,0.1,0.5,0.3,0.8c0.7,1.5,1.5,2.9,2.2,4.4c0.5,0.9,0.8,1.8,1.4,2.7
				c0.1,0.1,0.2,0.3,0.2,0.4c0.1,0,0.1,0.1,0.2,0.2c0.2,0.3,0.3,0.7,0.5,1l0.1,0.1l0,0c0.1,0.2,0.2,0.5,0.3,0.7l0,0
				c0.7,1.4,1.4,2.7,2.1,4.1c0.6,1,1.2,2,1.8,3c0.3,0.6,0.7,1.1,1,1.7c0.4,0.8,0.9,1.6,1.3,2.4c0.1,0.2,0.3,0.4,0.4,0.7
				c0.6,1.8,1.1,3.6,1.6,5.4c0.5,1.6,1,3.2,1.4,4.8c0.4,1.7,0.7,3.4,0.9,5c0.1,0.5-0.2,1-0.2,1.5c0.1,0.9,0.2,1.8,0.3,2.7
				c0.4,2.1,0,4.2,0.7,6.3c0.5,1.5,0.3,3.3,0.5,5c0,0.3,0,0.6,0.1,0.8c0.3,0.4,0.4,0.8,0.3,1.1c0.2,0.4,0.4,0.8,0.5,1.2
				c0.1,0.2,0.1,0.5,0.1,0.7h0.2C456.3,233,456.4,234.8,455.9,236.3z M472.6,227c-0.1,0.5-0.3,0.9-0.4,1.4c-0.1,0.6-0.2,1.1-0.2,1.7
				c0,0.4,0,0.8-0.1,1.2c0,0.2,0.1,0.4,0.1,0.6c-0.4,1.7-0.7,3.5-1.1,5.2c-0.1,0-0.2,0-0.3,0c-0.1-0.6-0.3-1.3-0.2-1.9
				c0.7-4.5,0.2-8.9-0.3-13.3c-0.1-0.8-0.6-1.5-1-2.3c0,1,0,1.9,0,2.9c0.1,4.8,0.3,9.6-0.8,14.3c-0.5,2.2-0.7,4.5-1.1,6.8
				c-0.1,0.6-0.5,1.1-0.6,1.7c-0.4,1.7-0.7,3.4-1.1,5.1c-0.6,2.3-1.4,4.7-2.2,6.9c-0.9,2.6-1.8,5.1-2.8,7.6c-0.3,0.8-0.6,1.5-1,2.3
				c-0.1,0.2-0.4,0.3-0.7,0.5c-0.1-0.3-0.2-0.6-0.2-0.8c0.3-1.2,0.6-2.5,1-3.7c0.7-1.8,0.9-3.6,1-5.4c0.1-1.9,0.6-3.8,0.9-5.7
				c0.1-0.6,0.2-1.3,0.2-1.9c0.1-1.2,0.2-2.3,0.3-3.5c0.1-1.7,0.1-3.5,0.2-5.2c0-0.4,0-0.7,0.1-1.1c0.6-2.1,0.8-4.2,0.5-6.4
				c-0.2-2-0.2-4.1-0.3-6.2c0-0.1,0-0.2,0-0.3c-0.3-0.7-0.3-1.3-0.1-1.9c-0.2-0.3-0.3-0.7-0.3-1l-0.1-1.3c0-0.3,0-0.5,0-0.8
				c-0.1-6.7-1.4-13.2-3.2-19.6c-0.8-2.9-2-5.6-3.1-8.4c-0.8-2.2-1.6-4.5-2.5-6.6c-0.7-1.7-1.7-3.2-2.6-4.8
				c-0.2-0.3-0.3-0.6-0.4-0.9c-0.1-0.1-0.1-0.3-0.2-0.5c0-0.1,0-0.1,0-0.2l-0.1,0.1c-0.3-0.6-0.7-1.1-1.1-1.7c0,0,0.1,0,0.1-0.1l0,0
				c-0.2-0.2-0.3-0.4-0.4-0.6h-0.1c0,0,0,0,0.1-0.1c-0.1-0.1-0.2-0.3-0.3-0.4c0,0-0.1,0-0.1,0.1c-1.8-2.4-3.4-4.9-5.2-7.2
				c-2.3-2.9-4.7-5.6-7-8.4c-1.9-2.3-3.8-4.5-5.8-6.8c-0.5-0.6-1.1-1.2-1.7-1.7c-1.8-1.5-3.5-3.1-5.4-4.6c-1.3-1-2.6-1.8-3.9-2.8
				c-0.9-0.7-1.7-1.5-2.7-2.1c-1-0.7-2.2-1.2-3.2-1.7c-0.5-0.3-1.1-0.5-1.9-0.9c0,0,0,0,0.1,0c-0.3-0.1-0.6-0.4-0.9-0.5
				c-0.2-0.1-0.3-0.2-0.5-0.3c-0.5-0.3-1.1-0.6-1.5-1l0,0c-0.2,0-0.2-0.1-0.3-0.2c-0.5-0.1-0.9-0.3-1.3-0.4
				c-0.2-0.1-0.4-0.2-0.5-0.3c-1.3-0.9-2.5-2-4-2.6c-2.7-1-4.9-3-7.8-3.4c-1.7-0.2-3.4-1.1-5.1-1.8c-2.6-1-5.4-1.2-8-2.4
				c-0.8-0.4-1.9-0.3-2.8-0.5c-0.2,0-0.4-0.1-0.6-0.1c-0.4,0-0.8,0-1.2-0.1c-1.6-0.4-2.7-0.8-4.4-0.7c-0.2,0-0.3,0-0.4-0.1
				c-0.1,0-0.3,0-0.4,0c-2-0.4-4-0.7-6.1-0.9c-1-0.1-2.1,0-3.1,0c-0.7,0-1.5-0.2-2.2-0.3c0-0.2,0-0.3,0-0.5c4.9-0.4,9.8-1.5,15,0
				c1,0,1.9-0.1,2.9,0.1c0.9,0.2,1.8,0.5,2.7,0.7c0.7-0.1,1.5,0.1,2.2,0.2c1.7,0.3,3.4,0.6,5.1,0.9c0.3,0,0.6,0.1,0.8-0.1
				c1.3-1.1,2.8-0.7,4.2-0.3c1.3,0.3,2.5,0.8,3.8,1.4c-2.3-0.4-4.6-0.9-7-1.3c0,0.1,0,0.1,0,0.2c3.2,1.2,6.3,2.3,9.5,3.5
				c3,1.1,6,2.2,8.9,3.5c1.9,0.8,3.7,1.8,5.6,2.7c0.2,0.1,0.3,0.1,0.5,0.2c0.5,0.2,1.1,0.4,1.5,0.8c0.2,0,0.5,0,0.6,0.1
				c2.4,1.4,4.8,2.8,7.1,4.3c3.5,2.3,7,4.6,10.4,7.1c2.2,1.6,4.2,3.6,6.3,5.4c1,0.9,2,1.7,2.9,2.6c0.1,0.1,0.3,0.2,0.4,0.3
				c2,2.4,4,4.7,5.9,7.2c1.7,2.2,3.2,4.5,4.7,6.8c0.6,0.9,1.2,1.9,1.7,2.8c0.2,0.3,0.1,0.7,0.1,1c0.3,0.2,0.7,0.3,0.9,0.5
				c0.6,0.8,1,1.7,1.5,2.5c0.7,1.1,1.3,2.2,1.9,3.3c1.2,2,2.5,4,3.9,6c-0.2-0.5-0.6-1-0.7-1.5c-0.2-1.5-1-2.8-1.6-4.2
				c-0.2-0.4-0.1-1-0.2-1.7c-1-2.1-2.1-4.4-3.2-6.7c0,0,0,0-0.1,0s-0.1-0.1-0.2-0.1c-0.1-0.2-0.2-0.5-0.4-0.6
				c-0.1-0.1-0.1-0.2-0.1-0.3l0,0c-0.3-1.8-1.5-3.1-2.3-4.7c0-0.1,0-0.1,0-0.2c0.1-0.1,0.2-0.2,0.3-0.2c0.8,1.2,1.6,2.4,2.4,3.6
				c0.2,0.3,0.5,0.6,0.6,1l0,0c0,0.1,0.1,0.2,0.1,0.3c0.1,0.2,0.2,0.3,0.2,0.5l0,0l0,0l0,0c0,0,0,0,0,0.1l0,0
				c0.4,0.8,0.8,1.6,1.2,2.3c0.6,1.2,1.3,2.4,1.9,3.6c0.7,1.3,1.5,2.6,2.2,4c0.7,1.3,1.1,2.7,1.8,3.9c0.4,0.8,1.1,1.5,1.7,2.4
				c-0.4-0.2-0.8-0.4-1.4-0.7c0.5,1.4,1.1,2.6,1.2,3.8c0.1,1.7,1.2,2.8,1.8,4.2c0.5,1.2,0.8,2.4,0.9,3.7c0.3,3,0.7,6,1.6,8.9
				c0.5,1.4,0.1,3.1,0.2,4.7c0.1,1.7,0.2,3.4,0.2,5.1c0,0.4-0.2,0.8-0.1,1.2c0.1,1.2,0.5,2.3,0.5,3.5
				C473.1,225.4,472.8,226.2,472.6,227z"/>
			<path d="M301,150.5c0.5-1.2,1-2.4,1.7-3.5c-1.7,1.8-3.3,3.5-5,5.3C298.8,151.5,299.9,150.9,301,150.5z"/>
			<path d="M441.4,185.8c0.1,0,0.2-0.1,0.3-0.1c-0.1,0.2-0.1,0.6-0.3,0.7c-2,1.7-4.1,3.3-6.1,5c-0.2,0.1-0.4,0.2-0.7,0.1
				c2-1.6,4-3.2,6-4.8C440.8,186.4,441.1,186.1,441.4,185.8z"/>
			<path d="M325.8,294.8c0.7,0.6,1.4,1.2,2,1.9c-0.1,0.1-0.1,0.2-0.2,0.2c-0.7-0.6-1.4-1.2-2-1.9
				C325.6,294.9,325.7,294.9,325.8,294.8z"/>
			<path d="M405.9,187.4c0.6,1.2,1.3,2.3,1.9,3.5C406.3,191.1,405.3,189.5,405.9,187.4z"/>
			<path d="M365.4,216.1c-0.7-0.2-1.6-1.5-1.9-3C364.1,214.1,364.7,215.1,365.4,216.1z"/>
		</g>
	</g>
	<g>
		<path d="M194.7,431.4c-1.7-0.9-1.8-2.4-0.9-3.9c1.5-2.4,3.1-4.7,4.7-7c0.4-0.6,0.9-1.2,1.2-2.2c-2.9,0.7-5.8,1.5-8.8,2
			c-5.1,0.9-10.2,1.8-15.3,2.5c-1.7,0.2-3.6,0.1-5.3-0.2c-3-0.6-3.8-2.5-2.2-5.2c1.1-1.8,2.5-3.6,4-5.1c2.6-2.6,5.3-5,8.2-7.6
			c-2.6,0.4-5,0.8-7.4,1c-1.2,0.1-2.4,0-3.5-0.1c-1.6-0.2-1.9-1.4-1-2.7c1-1.5,2.2-2.9,3.4-4.2c6.4-6.3,13.9-10.8,21.6-14.9
			c20-10.9,40.8-20,61.6-28.9c0.7-0.3,1.3-0.6,2.4-1.1c-0.9-0.6-1.6-1-2.4-1.4c-10.3-6-20.4-12.3-29.3-20.6c-3.2-3-6.3-6.3-8.9-9.8
			c-6.2-8.3-6.9-13.9-3.5-23.8c-2.5-1.7-5.1-3.4-7.5-5.2c-13.8-10.8-20.5-25.2-19-43.8c0.2-2.1-0.4-3.4-1.7-4.9
			c-5.2-6-10-12.3-12.9-20.1c-2.2-5.8-2.8-11.7,0.3-17.5c0.3-0.6,0-1.8-0.2-2.6c-2.6-8.3-5.3-16.5-7.9-24.8c-0.5-1.6-0.7-3.3-1-5
			c0-2.2,0-4.3,0-6.5c0.4-1.4,0.7-2.8,1.2-4.1c0.9-2.1,2.4-2.7,4-1.3c1.8,1.4,3.5,3.1,4.7,5.1c3.6,6.2,7,12.5,10.3,18.9
			c6.5,12.4,12.9,25,21.4,36.1c13,16.9,27.7,32,43.4,45.9c1.8,1.6,3.7,3.2,5.4,4.7c0-5-0.1-9.9,0-14.9c0.5-18.5,5.4-35.4,15.4-50.5
			c0.5-0.7,0.8-1.8,0.7-2.8c-0.1-7.3,0.3-14.5,2.2-21.6c3.7-14,11.7-24,23.7-30.2c1.5-0.8,2.2-1.7,2.5-3.6
			c1.1-8.2,5.5-13.5,12.6-16.2c1.5-0.6,2.5-1.5,3.4-3c2.5-4.1,5-8.2,9.3-10.3c0.7,0,1.3,0,2,0c2.8,1.8,3.6,4.8,4,8
			c0.8,6.6-0.6,12.9-1.8,19.2c-2,10.5-4,21-5.8,31.5c-1.3,7.8-0.5,15.7,0.3,23.5c0.8,8.2,1.6,16.3,0.2,24.5c-1,5.8-3.3,10.9-5.9,16
			c-2.4,4.7-4.8,9.4-7.4,14.1c-5.4,9.9-6.4,20.4-3.8,31.4c2.3,9.5,5.7,18.6,10.4,26.9c3.5,6.2,8.6,9.5,15.2,10.3
			c6.8,0.8,13-0.1,18.7-4.6c2.2-1.8,4.7-3.2,7.2-4.6c3.3-1.8,6.9-2.1,9.9,0.1c8.9,6.6,18.7,11.1,29.1,15.6c-2.4,0.7-4.3,1.3-6.2,1.9
			c-6.9,2.2-13.2,5.5-18.9,10.3c-3,2.5-5.4,5.6-6.2,9.5c-2.2,10.5-8.3,17.4-16.6,22.7c-9.5,6.1-19.1,11.9-29.7,15.3
			c-13.4,4.3-26.9,3.7-40.3,0.2c-6.8-1.7-13.4-4.4-20.1-6.9c-1.5-0.5-2.3-0.5-3.3,0.8c-8.8,11-18.2,21.6-28.6,30.9
			c-7.9,7.1-16.7,12.2-26.9,14c-0.2,0-0.3,0.2-0.5,0.3C197.3,431.4,196,431.4,194.7,431.4z M386.6,331.4c-0.3-0.1-0.6-0.2-0.9-0.3
			c-5.7-1.8-11.2-3.8-16-7.8c-6.1-5.1-8-5-14.3-0.2c-8.2,6.2-17.2,7.8-26.9,6.2c-8.2-1.3-14.6-5.8-18.7-13.8
			c-1.6-3.1-3.2-6.1-4.6-9.3c-3.3-7.7-6.1-15.7-6.2-24.3c-0.2-10.6,2.2-20.5,7.4-29.6c2.3-4,4.7-8,7.1-12c3.3-5.6,5.4-11.6,6.2-18.2
			c1.2-9.4-0.3-18.7-1.4-27.9c-0.8-7.1-1-14.2,0.5-21.2c1.8-8.3,3.8-16.6,5-25c0.9-6.7,0.9-13.6,1.1-20.4c0.1-2.8-1.8-3.7-4.1-2.3
			c-2.6,1.6-3.4,4.4-4.2,7.3c-1.2,4.5-2.3,9-3.7,13.4c-1.7,5.2-3.7,10.3-5.5,15.4c-0.3-0.4-0.3-0.6-0.2-0.9
			c1.6-7.3,3.2-14.5,4.8-21.8c0.1-0.6,0.1-1.7-0.2-1.9c-0.6-0.3-1.6-0.4-2.2-0.2c-0.8,0.4-1.6,1.1-2,2c-1,1.9-1.9,3.9-2.5,6.1
			c-3.1,11.5-6.1,23-9.2,34.6c-0.5,2-1.1,4.1-1.7,6.1c-0.1,0-0.2-0.1-0.3-0.1c1.1-8.8,2.2-17.6,3.3-27c-2,0.8-3.6,1.2-5.1,2
			c-5.4,2.9-8.9,7.8-11.8,13.3c-4.5,8.5-6,17.8-6.3,27.4c-0.4,16.3-0.5,32.7-0.6,49c0,4.7,0,9.4,0,14.1c-4.1-16.9-3.6-34.2-3.2-51.5
			c-1.1,1.8-2.1,3.7-3,5.6c-4.4,9.2-7.9,18.7-8.6,29.1c-0.6,8-1.1,16.1-0.7,24.2s1.8,16.1,2.9,24.1c0.4,3.2,1.2,6.4,1.8,9.7
			c-1.1-2.4-1.9-4.9-2.7-7.4c-1.8-5.7-2.4-6.1-7.8-4.3c-0.3,0.1-0.6,0.2-0.9,0.4c-3.3,1.5-4.8,4.5-4.1,8.3c0.2,1,0.5,2.1,0.9,3.1
			c4.2,8.9,8.5,17.8,12.8,26.8c0.4,0.8,0.8,1.5,1.2,2.2c-2.6-3-4.9-6.1-7-9.4c-4.2-6.3-8.2-12.7-10.9-20c-2.4-6.7,0.5-17.2,9.4-17.5
			c0.4,0,1.2-0.9,1.2-1.4c0.1-2.3,0.1-4.6,0.1-6.2c-2.4-1.7-4.7-3-6.6-4.7c-18.7-16.7-35.9-35.1-50.3-56.3
			c-6.1-9-10.6-19.4-16.1-28.9c-3.6-6.3-7.7-12.4-11.7-18.5c-0.5-0.8-1.4-1.2-2.2-1.8c-0.3,0.2-0.5,0.4-0.8,0.6
			c2.5,18.8,8.7,36.4,16.7,53.3c-2.5-4.2-4.9-8.3-7.4-12.5c-0.2,0-0.4,0-0.6,0c-0.2,1.5-0.8,3.1-0.5,4.4c0.5,2.6,1.2,5.3,2.3,7.7
			c3.6,8.2,8.6,15.4,13.7,22.5c3.7,5.2,7.6,10.2,11.4,15.3c-0.1,0.1-0.1,0.1-0.2,0.2c-3.9-3.9-7.8-7.8-11.9-11.9
			c-0.1,1.7-0.3,2.9-0.2,4c0.5,3.6,1.1,7.2,1.7,10.8c1.6,9.8,6,17.8,13.6,23.4c9.5,7,19.2,13.9,28.8,20.8c0.5,0.4,1.1,0.7,1.6,1.1
			c-0.1,0.1-0.1,0.2-0.2,0.4c-6.2-3.2-12.4-6.4-18.6-9.6c-3,6.1-2.5,14.3,1.7,20c2.5,3.3,5.5,6.2,8.7,8.8c11.1,9,23,16.5,35.2,23.5
			c0.7,0.4,1.3,0.8,2.2,1.3c-0.6,0.3-0.8,0.4-1,0.5c-22.2,10.9-44.4,21.8-66.5,32.8c-7.2,3.6-14.2,7.6-21.3,11.6c-1,0.6-1.7,2-2.5,3
			c1.3,0.2,2.7,0.9,3.9,0.6c5.6-1.4,11.2-2.9,16.7-4.7c5.2-1.7,10.3-3.8,15.5-5.7c-0.4,0.5-0.9,0.8-1.5,1.1
			c-5.9,3.4-12,6.5-17.7,10.2c-5.4,3.5-10.4,7.6-15.6,11.5c-0.7,0.5-0.9,1.7-1.3,2.5c0.8,0.5,1.6,1.2,2.5,1.4
			c4.8,1,9.5,0.2,14.1-1.2c10.8-3.3,20.8-8.8,30.8-14.4c0.6-0.3,1.1-0.6,1.7-0.9c-2.3,2.4-4.8,4.5-7.2,6.8c-4,4-8,8.2-11.9,12.4
			c-0.5,0.5-0.9,1.9-0.6,2.2c0.5,0.6,1.6,1,2.2,0.9c2.2-0.6,4.5-1,6.3-2.3c3.7-2.7,7.4-5.6,10.7-8.9c12.6-12.2,25.1-24.6,37.7-36.9
			c6.5-6.3,13.4-12.2,21.1-16.9c0.4-0.2,0.9-0.4,1.3-0.6c0,0.1,0.1,0.2,0.1,0.3c-7.4,7.6-14.9,15.2-22.6,23.1c2.6,1.1,5,2.2,7.4,3.1
			c8.3,3.1,16.9,4.1,25.5,5.3c8.2,1.2,16.2,0.8,24.1-2.3c9-3.6,17.6-8.3,26-13.2c6.2-3.6,11.6-8,14.7-15.2c1.3-3,2.5-6,3.3-9.2
			c1.3-4.9,3.9-8.5,7.8-11.2C374.3,335.6,380.4,333.4,386.6,331.4z"/>
	</g>
</g>
<rect x="274.7" y="418.2" class="st0" width="50.5" height="16.9"/>
<text transform="matrix(1 0 0 1 274.6431 435.0858)" class="st1 st2">2017</text>
</svg>
